<svg xmlns="http://www.w3.org/2000/svg" width="17.672" height="18" viewBox="0 0 17.672 18">
  <g id="Group_12077" data-name="Group 12077" transform="translate(-582.055 -531.685)">
    <path id="Rectangle_1710" data-name="Rectangle 1710" d="M1.677,0H2.3A1.678,1.678,0,0,1,3.98,1.678v9.417A1.677,1.677,0,0,1,2.3,12.771H1.677A1.677,1.677,0,0,1,0,11.095V1.677A1.677,1.677,0,0,1,1.677,0Z" transform="translate(582.055 531.685)" fill="#92a1af"/>
    <path id="Rectangle_1711" data-name="Rectangle 1711" d="M1.676,0H2.3A1.678,1.678,0,0,1,3.98,1.678V16.324A1.676,1.676,0,0,1,2.3,18H1.677A1.677,1.677,0,0,1,0,16.323V1.676A1.676,1.676,0,0,1,1.676,0Z" transform="translate(588.901 531.685)" fill="#92a1af"/>
    <path id="Rectangle_1712" data-name="Rectangle 1712" d="M1.677,0H2.3A1.678,1.678,0,0,1,3.98,1.678V13.57A1.677,1.677,0,0,1,2.3,15.247H1.677A1.677,1.677,0,0,1,0,13.57V1.677A1.677,1.677,0,0,1,1.677,0Z" transform="translate(595.747 531.685)" fill="#92a1af"/>
  </g>
</svg>
