<svg id="Group_12069" data-name="Group 12069" xmlns="http://www.w3.org/2000/svg" width="17.928" height="17.598" viewBox="0 0 17.928 17.598">
  <path id="Rectangle_1644" data-name="Rectangle 1644" d="M1.639,0H6.12A1.639,1.639,0,0,1,7.759,1.639V6.121A1.64,1.64,0,0,1,6.12,7.76H1.639A1.639,1.639,0,0,1,0,6.121V1.639A1.639,1.639,0,0,1,1.639,0Z" transform="translate(0 0)" fill="#92a1af"/>
  <path id="Rectangle_1645" data-name="Rectangle 1645" d="M1.639,0H6.12A1.639,1.639,0,0,1,7.759,1.639V6.121a1.64,1.64,0,0,1-1.64,1.64H1.639A1.639,1.639,0,0,1,0,6.121V1.639A1.639,1.639,0,0,1,1.639,0Z" transform="translate(10.169 0)" fill="#92a1af"/>
  <path id="Rectangle_1646" data-name="Rectangle 1646" d="M1.64,0H6.12A1.639,1.639,0,0,1,7.759,1.639V6.122A1.639,1.639,0,0,1,6.121,7.76H1.639A1.639,1.639,0,0,1,0,6.121V1.64A1.64,1.64,0,0,1,1.64,0Z" transform="translate(0 9.837)" fill="#92a1af"/>
  <path id="Rectangle_1647" data-name="Rectangle 1647" d="M1.639,0h4.48a1.64,1.64,0,0,1,1.64,1.64V6.122A1.639,1.639,0,0,1,6.12,7.76H1.639A1.639,1.639,0,0,1,0,6.121V1.639A1.639,1.639,0,0,1,1.639,0Z" transform="translate(10.169 9.837)" fill="#92a1af"/>
</svg>
