<?xml version="1.0" encoding="utf-8"?>
<!-- Generator: Adobe Illustrator 16.0.0, SVG Export Plug-In . SVG Version: 6.00 Build 0)  -->
<!DOCTYPE svg PUBLIC "-//W3C//DTD SVG 1.1//EN" "http://www.w3.org/Graphics/SVG/1.1/DTD/svg11.dtd">
<svg version="1.1" id="Layer_1" xmlns="http://www.w3.org/2000/svg" xmlns:xlink="http://www.w3.org/1999/xlink" x="0px" y="0px"
	 width="263.235px" height="54.411px" viewBox="0 0 263.235 54.411" enable-background="new 0 0 263.235 54.411"
	 xml:space="preserve">
<g>
	<path fill="#ED6A6F" d="M21.678,25.103L21.678,25.103c3.577,0,6.486-2.91,6.487-6.486c0-3.576-2.91-6.484-6.486-6.484
		c-3.576,0-6.485,2.908-6.485,6.484S18.103,25.103,21.678,25.103z M23.257,20.194c-0.423,0.421-0.984,0.654-1.579,0.654
		c-1.23,0-2.23-1.001-2.231-2.231c0.001-1.231,1.002-2.231,2.232-2.231c0.596,0,1.155,0.231,1.578,0.653
		c0.423,0.423,0.654,0.982,0.654,1.578C23.911,19.212,23.68,19.771,23.257,20.194z"/>
</g>
<g>
	<g>
		<path fill="#ED6A6F" d="M21.679,27.152c-5.979,0-10.844,4.865-10.844,10.845c0,1.172,0.953,2.127,2.125,2.127h0.002
			c1.172,0,2.126-0.955,2.126-2.127c0-3.633,2.957-6.592,6.591-6.592c1.35,0,2.604,0.409,3.651,1.108
			c0.603-1.304,1.408-2.492,2.382-3.523C25.985,27.831,23.91,27.152,21.679,27.152z"/>
	</g>
	<g>
		<path fill="none" d="M39.49,18.617c0-0.596-0.231-1.155-0.654-1.578c-0.423-0.422-0.982-0.653-1.577-0.653
			c-1.231,0-2.232,1-2.233,2.231c0.001,1.23,1.002,2.231,2.231,2.231c0.596,0,1.156-0.233,1.579-0.654
			C39.259,19.771,39.49,19.212,39.49,18.617z"/>
	</g>
</g>
<path fill="#475765" d="M94.362,36.36c2.239,0,4.479-0.403,6.902-1.615l0.991,3.709c-2.717,1.321-5.03,1.982-8.113,1.982
	c-7.27,0-10.904-4.773-10.904-12.887c0-7.489,3.524-12.703,11.124-12.703c2.937,0,5.727,0.882,7.746,1.689l-0.293,8.004h-3.855
	l-0.073-5.178c-1.102-0.366-2.166-0.587-3.635-0.587c-4.663,0-6.498,3.635-6.498,8.774C87.753,32.579,89.736,36.36,94.362,36.36z"/>
<path fill="#475765" d="M103.023,36.508h2.203v-18.43h-2.203V14.48h6.241v10.353c0.918-0.881,2.606-1.908,5.25-1.908
	c3.855,0,5.654,2.275,5.654,6.607v6.976h2.166v3.524h-8.664v-3.524h2.423v-6.534c0-2.02-0.624-3.195-3.121-3.195
	c-1.468,0-3.01,0.698-3.708,1.249v8.48h2.386v3.524h-8.627V36.508z"/>
<path fill="#475765" d="M171.187,26.375c0.588,0.734,0.955,2.056,0.955,3.341c0,3.855-2.9,5.874-7.049,5.874
	c-1.028,0-2.166-0.11-2.9-0.367l-0.147,2.239h5.581c3.487,0,5.653,1.579,5.653,4.699c0,3.709-3.304,6.168-8.812,6.168
	c-5.47,0-7.525-1.762-7.525-4.369c0-1.908,1.652-3.12,2.826-3.377c-0.881-0.44-1.432-1.469-1.432-2.387
	c0-1.615,1.102-2.68,2.057-3.414c-1.836-0.991-2.864-2.863-2.864-5.287c0-3.817,2.533-6.57,7.6-6.57c1.615,0,3.487,0.55,4.405,1.248
	c1.176-1.799,2.863-2.313,4.626-2.203l0.073,4.038L171.187,26.375z M160.944,42.97c0,1.285,0.844,2.202,3.671,2.202
	c2.606,0,4.368-0.808,4.368-2.35c0-0.954-0.514-1.726-2.239-1.726h-4.699C161.458,41.538,160.944,42.125,160.944,42.97z
	 M168.286,29.569c0-1.799-0.991-3.047-3.305-3.047c-2.459,0-3.414,1.248-3.414,3.047c0,1.688,0.809,2.938,3.414,2.938
	C167.405,32.507,168.286,31.294,168.286,29.569z"/>
<path fill="#475765" d="M186.782,35.37l1.321,3.23c-1.763,1.102-4.186,1.836-6.388,1.836c-5.801,0-8.188-3.672-8.188-8.775
	c0-4.771,2.57-8.736,7.71-8.736c5.103,0,7.049,3.634,7.049,7.232c0,0.917-0.11,2.166-0.294,2.863H177.86
	c0.074,2.35,1.322,3.781,3.892,3.781C183.515,36.802,185.239,36.288,186.782,35.37z M184.285,29.937
	c0.036-0.221,0.036-0.404,0.036-0.514c0-2.057-1.395-3.084-3.083-3.084c-2.313,0-3.194,1.615-3.341,3.598H184.285z"/>
<path fill="#475765" d="M197.068,36.472h4.442v3.561h-11.308v-3.561h2.569V18.775h-2.569v-3.562h10.72
	c6.205,0,8.774,3.084,8.774,7.82s-2.569,7.82-8.774,7.82h-1.982v-3.598h2.203c3.377,0,4.111-2.02,4.111-4.186
	s-0.734-4.332-4.111-4.332h-4.075V36.472z"/>
<path fill="#475765" d="M211.236,18.042h-2.717V14.48h6.755v20.265c0,1.396,0.404,1.836,1.469,1.836
	c0.514,0,1.064-0.073,1.578-0.184l0.074,3.562c-0.808,0.294-1.873,0.478-3.011,0.478c-3.304,0-4.148-2.13-4.148-5.141V18.042z"/>
<path fill="#475765" d="M155.369,29.532c0-4.332-1.835-6.607-5.653-6.607c-3.342,0-4.81,1.32-5.654,2.35v-1.983h-5.727v3.562h2.092
	v9.655c0,0-2.272-0.011-2.64-0.011c-0.587,0-0.954-0.295-0.954-0.992v-6.34c0-4.772-1.762-6.24-6.719-6.24
	c-4.625,0-6.755,1.688-6.755,4.001c0,0.808,0.184,1.579,0.551,2.276h3.598v-2.387c0.955-0.184,1.432-0.221,2.606-0.221
	c0.734,0,1.982,0.074,2.533,0.221v3.378l-2.092,0.22c-4.957,0.367-8.151,1.543-8.151,5.214c0,2.974,1.909,4.81,5.03,4.81
	c2.753,0,4.589-1.396,5.507-2.754c0.22,1.542,1.262,2.349,3.392,2.349c0.807,0,1.408,0.013,2.695,0.001h7.824v-3.524h-2.35v-8.48
	c0.697-0.551,2.202-1.249,3.634-1.249c2.46,0,3.157,1.176,3.157,3.195v6.534h-2.423v3.524h8.628v-3.524h-2.13V29.532z
	 M132.647,35.479c-0.881,0.809-2.312,1.543-3.855,1.543c-1.321,0-2.019-0.588-2.019-1.727c0-1.211,0.844-1.799,3.782-2.129
	l2.092-0.257V35.479z"/>
<path fill="#475765" d="M251.536,29.532c0-4.332-1.836-6.607-5.654-6.607c-3.341,0-4.809,1.32-5.654,2.35v-1.983h-5.727v3.562h2.093
	v9.655c0,0-2.272-0.011-2.64-0.011c-0.588,0-0.955-0.295-0.955-0.992v-6.34c0-4.772-1.762-6.24-6.719-6.24
	c-4.625,0-6.754,1.688-6.754,4.001c0,0.808,0.184,1.579,0.551,2.276h3.598v-2.387c0.954-0.184,1.432-0.221,2.605-0.221
	c0.734,0,1.982,0.074,2.533,0.221v3.378l-2.092,0.22c-4.957,0.367-8.15,1.543-8.15,5.214c0,2.974,1.909,4.81,5.029,4.81
	c2.754,0,4.59-1.396,5.508-2.754c0.22,1.542,1.262,2.349,3.391,2.349c0.808,0,1.409,0.013,2.696,0.001h7.823v-3.524h-2.35v-8.48
	c0.697-0.551,2.203-1.249,3.635-1.249c2.459,0,3.156,1.176,3.156,3.195v6.534h-2.422v3.524h8.627v-3.524h-2.129V29.532z
	 M228.813,35.479c-0.881,0.809-2.312,1.543-3.854,1.543c-1.321,0-2.019-0.588-2.019-1.727c0-1.211,0.844-1.799,3.781-2.129
	l2.092-0.257V35.479z"/>
<g>
	<g>
		<path fill="#4893CF" d="M61.717,40.314c-0.112,0-0.226-0.01-0.34-0.026c-1.054-0.156-1.863-1.019-1.951-2.082
			c-0.016-0.149-0.433-4.049-3.88-5.9c-1.119-0.601-1.539-1.994-0.937-3.112c0.601-1.118,1.995-1.539,3.112-0.937
			c1.953,1.05,3.303,2.476,4.236,3.908c3.384-6.41,8.746-15.143,18.886-22.446c1.03-0.742,2.487-0.388,3.178,0.678
			c0.691,1.064,0.361,2.45-0.677,3.179C69.17,23.534,63.922,38.689,63.851,38.867C63.499,39.751,62.646,40.314,61.717,40.314z"/>
	</g>
</g>
<g>
	<path fill="none" d="M52.837,20.849c0.596,0,1.157-0.233,1.58-0.654c0.422-0.423,0.654-0.982,0.653-1.577
		c0.001-0.596-0.231-1.155-0.653-1.578c-0.423-0.422-0.983-0.653-1.578-0.653c-1.231,0-2.232,1-2.233,2.231
		C50.606,19.848,51.607,20.849,52.837,20.849z"/>
	<g>
		<path fill="#9E87BF" d="M52.584,28.104c0.185-0.343,0.412-0.651,0.668-0.93c-0.139-0.006-0.274-0.022-0.414-0.022
			c-5.98,0-10.845,4.865-10.845,10.845c0,1.172,0.954,2.127,2.125,2.127h0.003c1.171,0,2.125-0.955,2.125-2.127
			c0-3.417,2.617-6.236,5.951-6.559C51.904,30.312,52.03,29.136,52.584,28.104z"/>
	</g>
	<g>
		<path fill="#9E87BF" d="M52.838,25.103L52.838,25.103c3.576,0,6.485-2.909,6.487-6.486c0-3.576-2.91-6.484-6.486-6.484
			c-3.576,0-6.486,2.908-6.486,6.484S49.263,25.103,52.838,25.103z M52.839,16.386c0.595,0,1.155,0.231,1.578,0.653
			c0.422,0.423,0.654,0.982,0.653,1.578c0.001,0.595-0.231,1.154-0.653,1.577c-0.423,0.421-0.984,0.654-1.58,0.654
			c-1.229,0-2.23-1.001-2.231-2.231C50.606,17.386,51.607,16.386,52.839,16.386z"/>
	</g>
</g>
<g>
	<path fill="none" d="M37.257,20.849c0.596,0,1.156-0.233,1.579-0.654c0.422-0.423,0.654-0.982,0.654-1.577
		c0-0.596-0.231-1.155-0.654-1.578c-0.423-0.422-0.982-0.653-1.577-0.653c-1.231,0-2.232,1-2.233,2.231
		C35.027,19.848,36.028,20.849,37.257,20.849z"/>
	<g>
		<path fill="#00B2A2" d="M37.259,27.152c-5.979,0-10.845,4.865-10.845,10.845c0,1.172,0.953,2.127,2.125,2.127h0.002
			c1.172,0,2.126-0.955,2.126-2.127c0-3.633,2.957-6.592,6.592-6.592c1.349,0,2.604,0.409,3.651,1.108
			c0.602-1.304,1.407-2.492,2.381-3.523C41.566,27.831,39.49,27.152,37.259,27.152z"/>
	</g>
	<g>
		<path fill="#00B2A2" d="M37.257,25.103h0.002c3.575,0,6.484-2.91,6.485-6.486c0-3.576-2.909-6.484-6.485-6.484
			c-3.576,0-6.486,2.908-6.486,6.484S33.683,25.103,37.257,25.103z M37.259,16.386c0.595,0,1.154,0.231,1.577,0.653
			c0.422,0.423,0.654,0.982,0.654,1.578c0,0.595-0.231,1.154-0.654,1.577c-0.423,0.421-0.983,0.654-1.579,0.654
			c-1.229,0-2.23-1.001-2.231-2.231C35.027,17.386,36.028,16.386,37.259,16.386z"/>
	</g>
</g>
</svg>
