<?xml version="1.0" encoding="utf-8"?>
<!-- Generator: Adobe Illustrator 16.2.1, SVG Export Plug-In . SVG Version: 6.00 Build 0)  -->
<!DOCTYPE svg PUBLIC "-//W3C//DTD SVG 1.1//EN" "http://www.w3.org/Graphics/SVG/1.1/DTD/svg11.dtd">
<svg version="1.1" xmlns="http://www.w3.org/2000/svg" xmlns:xlink="http://www.w3.org/1999/xlink" x="0px" y="0px" width="269px"
	 height="268px" viewBox="0 0 269 268" enable-background="new 0 0 269 268" xml:space="preserve">
<g id="Layer_1" display="none">
	<g display="inline">
		<path fill="#92a1af" d="M188.354,42.967L76.138,87.85H45.681c-11.254,0-20.418,9.168-20.418,20.422v24.953
			c0,10.691,8.398,18.148,20.418,18.148h7.711l8.238,57.68c0.488,3.359,3.352,5.844,6.738,5.844h27.223
			c1.941,0,3.781-0.824,5.086-2.27c1.289-1.441,1.906-3.363,1.684-5.301l-5.352-47.605l91.336,36.539
			c0.824,0.324,1.676,0.488,2.527,0.488c1.336,0,2.684-0.398,3.824-1.168c1.867-1.273,2.984-3.379,2.984-5.641V49.287
			c0-2.262-1.117-4.371-2.984-5.637C192.814,42.381,190.443,42.123,188.354,42.967z"/>
		<path fill="#92a1af" d="M217.818,99.975l22.688-18.148c2.93-2.352,3.414-6.633,1.062-9.57c-2.367-2.922-6.637-3.398-9.578-1.062
			l-22.688,18.148c-2.93,2.348-3.406,6.629-1.055,9.566c1.34,1.676,3.32,2.555,5.312,2.555
			C215.064,101.463,216.557,100.975,217.818,99.975z"/>
		<path fill="#231F20" d="M217.818,148.33c-2.926-2.34-7.203-1.863-9.57,1.055c-2.352,2.93-1.875,7.227,1.055,9.578l22.688,18.148
			c1.266,0.996,2.762,1.488,4.258,1.488c1.996,0,3.977-0.879,5.32-2.551c2.352-2.93,1.867-7.223-1.062-9.57L217.818,148.33z"/>
		<path fill="#92a1af" d="M236.248,117.346h-22.688c-3.754,0-6.805,3.047-6.805,6.805s3.051,6.809,6.805,6.809h22.688
			c3.758,0,6.812-3.051,6.812-6.809S240.006,117.346,236.248,117.346z"/>
	</g>
</g>
<g id="Layer_6" display="none">
	<path display="inline" fill="#92a1af" d="M246.638,196.991c-5,4.109-12.379,3.383-16.484-1.621l-0.066-0.086
		c-1.734-2.113-3.84-3.289-5.934-3.289c0,0,0,0-0.004,0c-2.09,0-4.199,0.992-5.938,3.117c-6.191,7.566-14.961,11.723-24.066,11.723
		c-0.012,0-0.016,0-0.023,0c-9.098,0-17.855-4.121-24.039-11.656l-0.086,0.098c-1.512-1.848-3.309-2.969-5.129-3.227
		c-0.199-0.027-0.391-0.055-0.59-0.055h-0.004c-2.094,0-4.203,0.992-5.945,3.117c-6.191,7.566-14.957,11.723-24.062,11.723
		c-0.008,0-0.016,0-0.027,0c-9.094,0-17.855-4.133-24.031-11.656l-0.031,0.156c-1.777-2.164-3.887-3.34-5.969-3.34
		c-0.004,0-0.004,0-0.008,0c-2.078,0-4.172,1.07-5.902,3.16c-0.02,0.023-0.039-0.035-0.055-0.02
		c-6.18,7.551-14.945,11.699-24.051,11.699c-0.008,0-0.02,0-0.027,0c-9.094,0-17.855-4.121-24.035-11.645l-0.086,0.086
		c-1.73-2.113-3.84-3.281-5.93-3.281c-0.004,0-0.004,0-0.004,0c-2.086,0-4.195,1.176-5.934,3.297
		c-4.109,4.996-11.48,5.73-16.484,1.629c-5.004-4.105-5.734-11.48-1.633-16.484c6.18-7.535,14.945-11.863,24.043-11.863
		c0.004,0,0.008,0,0.012,0c9.098,0,17.855,4.219,24.039,11.742l0.086,0.008c1.734,2.113,3.84,3.09,5.93,3.09c0,0,0,0,0.004,0
		c2.07,0,4.168-0.969,5.898-3.062c0.023-0.027,0.039,0.137,0.055,0.121c6.18-7.551,14.945-11.898,24.051-11.898
		c0.012,0,0.023,0,0.031,0c9.094,0,17.852,4.227,24.031,11.75l0.031-0.051c1.777,2.164,3.883,3.141,5.969,3.141
		c0.004,0,0.004,0,0.012,0c1.719,0,3.449-0.613,4.98-2.082c0.242-0.371,0.496-0.543,0.781-0.895
		c6.176-7.535,14.941-11.855,24.047-11.863c0.004,0,0.008,0,0.012,0c0.625,0,1.254,0,1.879,0.043
		c8.492,0.492,16.566,4.699,22.367,11.766l0.066,0.035c0.262,0.32,0.508,0.555,0.734,0.898c1.531,1.477,3.273,2.098,5.004,2.098
		c0.004,0,0.004,0,0.004,0c2.098,0,4.207-0.992,5.945-3.117c6.188-7.566,14.961-11.723,24.062-11.723c0.008,0,0.016,0,0.023,0
		c9.098,0,17.855,4.32,24.039,11.852l0.07,0.09C252.368,185.507,251.638,192.894,246.638,196.991z M224.153,109.229
		c-0.008,0-0.016,0-0.023,0c-9.078,0-17.812,4.418-23.988,11.926c-0.023,0.023-0.051,0.207-0.074,0.242
		c-1.738,2.121-3.848,3.449-5.941,3.449c-0.004,0-0.004,0-0.008,0c-1.73,0-3.473-0.906-5.004-2.391c-0.219-0.32-0.449-0.688-0.695-1
		l-0.109-0.148c-5.801-7.062-13.883-11.414-22.379-11.906c-0.617-0.031-1.238-0.172-1.863-0.172c-0.004,0-0.008,0-0.012,0
		c-9.105,0-17.867,4.426-24.043,11.961c-0.289,0.352-0.543,0.859-0.785,1.23c-1.527,1.469-3.262,2.426-4.984,2.426
		c-0.004,0-0.004,0-0.004,0c-2.09,0-4.195-1.27-5.938-3.391l-0.066-0.223c-6.176-7.535-14.938-12.004-24.031-12.004
		c-0.008,0-0.02,0-0.031,0c-9.105,0-17.871,4.547-24.059,12.105c-1.742,2.133-3.852,3.512-5.945,3.512c-0.004,0-0.004,0-0.004,0
		c-2.09,0-4.195-1.27-5.93-3.375l-0.086-0.258c-6.184-7.523-14.941-11.984-24.039-11.984c0,0-0.004,0-0.008,0
		c-9.102,0-17.867,4.426-24.047,11.961c-4.102,5.004-3.367,12.43,1.633,16.54c5,4.098,12.379,3.293,16.48-1.711
		c1.742-2.121,3.852-3.363,5.941-3.363l0,0c2.09,0,4.199,1.27,5.934,3.375l0.086,0.258c6.18,7.523,14.938,11.984,24.035,11.984
		c0.008,0,0.012,0,0.023,0c9.109,0,17.871-4.547,24.066-12.105c1.738-2.133,3.848-3.512,5.941-3.512c0.004,0,0.004,0,0.008,0
		c2.086,0,4.191,1.277,5.934,3.391l0.062,0.234c6.18,7.523,14.941,11.992,24.039,11.992c0.004,0,0.02,0,0.027,0
		c9.07,0,17.812-4.41,23.984-11.918c0.027-0.023,0.051-0.215,0.078-0.238c1.738-2.133,3.848-3.461,5.941-3.461
		c0.004,0,0.004,0,0.004,0c0.199,0,0.387,0.129,0.582,0.145c1.824,0.262,3.625,1.434,5.141,3.281l0.082,0.223
		c6.184,7.531,14.945,11.969,24.035,11.969c0.012,0,0.02,0,0.027,0c9.074,0,17.809-4.41,23.988-11.906
		c0.023-0.035,0.047-0.219,0.074-0.25c1.746-2.133,3.855-3.461,5.945-3.461c0,0,0,0,0.004,0c2.09,0,4.199,1.277,5.898,3.348
		l0.066,0.137c4.082,5.012,11.461,5.797,16.477,1.719c5.016-4.074,5.777-11.442,1.699-16.461l-0.102-0.227
		C242.013,113.639,233.251,109.229,224.153,109.229z M21.688,78.627c5.004,4.105,12.379,3.562,16.48-1.434
		c1.742-2.121,3.852-3.098,5.941-3.098l0,0c2.094,0,4.199,0.969,5.934,3.082l0.086,0.008c6.18,7.523,14.938,11.742,24.035,11.742
		c0.008,0,0.012,0,0.027,0c9.105-0.008,17.871-4.156,24.062-11.715c1.738-2.133,3.848-3.117,5.945-3.117c0,0,0,0,0.004,0
		c2.086,0,4.191,0.977,5.934,3.098l0.066-0.016c6.176,7.531,14.938,11.75,24.035,11.75c0.004,0,0.02,0,0.027,0
		c9.07-0.008,17.812-4.312,23.984-11.809c0.027-0.035,0.051,0.117,0.078,0.094c1.738-2.133,3.848-3.117,5.941-3.117
		c0.004,0,0.004,0,0.008,0c0.195,0,0.387-0.164,0.586-0.145c1.82,0.258,3.617,1.285,5.133,3.121l0.082,0.062
		c6.184,7.523,14.945,11.793,24.039,11.793c0.008,0,0.016,0,0.023,0c9.078-0.008,17.812-4.312,23.988-11.809
		c0.023-0.027,0.047,0.117,0.074,0.094c1.746-2.133,3.855-3.125,5.945-3.125h0.004c2.094,0,4.199,0.984,5.898,3.055l0.066-0.008
		c4.082,5.02,11.461,5.738,16.477,1.656s5.781-11.484,1.699-16.496l-0.102,0.043c-6.184-7.531-14.945-11.672-24.039-11.672
		c-0.008,0-0.016,0-0.023,0c-9.078,0-17.816,4.133-23.988,11.629c-0.023,0.027-0.051-0.027-0.074,0
		c-1.746,2.133-3.848,3.211-5.945,3.211h-0.004c-1.73,0-3.473-0.812-5.004-2.289c-0.219-0.328-0.449-0.645-0.699-0.949l-0.105-0.129
		c-5.797-7.066-13.871-11.102-22.367-11.594c-0.621-0.043-1.246,0.121-1.875,0.121c-0.004,0-0.008,0-0.012,0
		c-9.105,0-17.867,4.141-24.047,11.672c-0.285,0.355-0.539,0.621-0.781,0.984c-1.527,1.473-3.262,2.184-4.984,2.184
		c-0.004,0-0.004,0-0.004,0c-2.09,0-4.195-1.168-5.938-3.289l-0.066,0.105c-6.176-7.523-14.938-11.648-24.031-11.648
		c-0.008,0-0.02,0-0.031,0c-9.105,0-17.871,4.148-24.059,11.715c-1.742,2.125-3.852,3.117-5.945,3.117c-0.004,0-0.004,0-0.004,0
		c-2.09,0-4.195-1.168-5.93-3.281l-0.086,0.086c-6.184-7.523-14.941-11.637-24.039-11.637c0,0-0.004,0-0.012,0
		c-9.098,0-17.863,4.133-24.043,11.664C15.954,67.342,16.688,74.53,21.688,78.627z"/>
</g>
<g id="Layer_5" display="none">
	<g display="inline">
		<path fill="#92a1af" d="M119.282,136.478c0-6.273-5.086-11.355-11.359-11.355H96.122c-6.273,0-11.355,5.082-11.355,11.355v79.109
			c0,6.27,5.082,11.359,11.355,11.359h11.801c6.273,0,11.359-5.09,11.359-11.359V136.478L119.282,136.478z"/>
		<path fill="#92a1af" d="M68.372,164.095c0-6.754-5.473-12.227-12.223-12.227H46.071c-6.746,0-12.215,5.473-12.215,12.227v50.629
			c0,6.754,5.469,12.223,12.215,12.223h10.078c6.75,0,12.223-5.469,12.223-12.223V164.095z"/>
		<path fill="#92a1af" d="M169.333,106.271c0-6.27-5.086-11.352-11.359-11.352h-11.801c-6.273,0-11.356,5.082-11.356,11.352v109.316
			c0,6.27,5.083,11.359,11.356,11.359h11.801c6.273,0,11.359-5.09,11.359-11.359V106.271z"/>
		<path fill="#92a1af" d="M232.63,62.685l-22.141-28.402c-1.91-2.449-4.633-3.855-7.457-3.855c-2.828,0-5.547,1.406-7.457,3.855
			l-22.141,28.402c-1.898,2.434-2.363,5.109-1.277,7.332c1.184,2.426,4.031,3.875,7.602,3.875l5.969,0.016v142.004
			c0,6.266,5.102,11.035,11.363,11.035h11.883c6.262,0,11.27-4.77,11.27-11.035V73.813l6.008,0.078c3.582,0,6.453-1.449,7.633-3.875
			C234.974,67.794,234.528,65.118,232.63,62.685z"/>
	</g>
</g>
<g id="Layer_4" display="none">
	<g display="inline">
		<path fill="#92a1af" d="M178.93,112.552c-16.645,0-31.82,6.766-43.168,19.141c4.371,3.078,8.359,6.66,11.902,10.66
			c12.938,14.617,20.117,35.043,20.254,57.574c3.66,0.426,7.332,0.652,11.012,0.664c29.715,0,55.488-13.016,62.336-16.785
			c-0.426-20.156-6.918-38.293-18.395-51.258C211.457,119.649,195.852,112.552,178.93,112.552z"/>
		<path fill="#92a1af" d="M178.93,37.692c16.203,0,29.344,13.133,29.344,29.348c0,16.203-13.141,29.336-29.344,29.336
			c-16.207,0-29.344-13.133-29.344-29.336C149.586,50.825,162.723,37.692,178.93,37.692z"/>
		<path fill="#92a1af" d="M89.394,131.642c-16.918,0-32.523,7.102-43.941,19.996c-11.465,12.949-17.957,31.051-18.395,51.164
			c7.402,3.773,35.105,16.879,62.336,16.879c29.648,0,55.477-13.02,62.333-16.789c-0.422-20.16-6.918-38.285-18.391-51.254
			C121.917,138.743,106.312,131.642,89.394,131.642z"/>
		<path fill="#92a1af" d="M89.394,56.786c16.211,0,29.348,13.129,29.348,29.34c0,16.207-13.137,29.344-29.348,29.344
			c-16.207,0-29.344-13.137-29.344-29.344C60.05,69.915,73.187,56.786,89.394,56.786z"/>
	</g>
</g>
<g id="Layer_3">
	<g>
		<path fill="#92a1af" d="M114.39,42.415H60.468c-6.938,0-12.582,5.641-12.582,12.578v32.352c0,6.938,5.645,12.582,12.582,12.582
			h53.922c6.941,0,12.582-5.645,12.582-12.582V54.993C126.972,48.056,121.332,42.415,114.39,42.415z"/>
		<path fill="#92a1af" d="M114.39,114.31H60.468c-6.938,0-12.582,5.641-12.582,12.578v75.492c0,6.938,5.645,12.578,12.582,12.578
			h53.922c6.941,0,12.582-5.641,12.582-12.578v-75.492C126.972,119.95,121.332,114.31,114.39,114.31z"/>
		<path fill="#92a1af" d="M207.855,157.442h-53.922c-6.938,0-12.582,5.648-12.582,12.582v32.355c0,6.938,5.645,12.578,12.582,12.578
			h53.922c6.938,0,12.582-5.641,12.582-12.578v-32.355C220.438,163.091,214.793,157.442,207.855,157.442z"/>
		<path fill="#92a1af" d="M207.855,42.415h-53.922c-6.938,0-12.582,5.641-12.582,12.578v75.488c0,6.941,5.645,12.582,12.582,12.582
			h53.922c6.938,0,12.582-5.641,12.582-12.582V54.993C220.438,48.056,214.793,42.415,207.855,42.415z"/>
	</g>
</g>
<g id="Layer_2" display="none">
	<path display="inline" fill="#92a1af" d="M133.857,65.813c-8.199,0-14.605,4.398-14.605,12.207c0,23.805,2.801,58.023,2.801,81.828
		c0,6.203,5.398,8.797,11.805,8.797c4.805,0,11.605-2.594,11.605-8.797c0-23.805,2.801-58.023,2.801-81.828
		C148.264,70.223,141.662,65.813,133.857,65.813z M134.057,182.449c-8.801,0-15.398,7.008-15.398,15.41
		c0,8.207,6.598,15.402,15.398,15.402c8.207,0,15.207-7.195,15.207-15.402C149.264,189.457,142.264,182.449,134.057,182.449z
		 M255.119,198.109c11.133,17.402,3.336,31.648-17.32,31.648H30.525c-20.66,0-28.453-14.246-17.32-31.648L113.916,40.672
		c11.133-17.41,29.355-17.41,40.488,0L255.119,198.109z"/>
</g>
</svg>
