<svg xmlns="http://www.w3.org/2000/svg" width="181.703" height="23.007" viewBox="0 0 181.703 23.007">
  <g id="Group_12006" data-name="Group 12006" transform="translate(-23.833 -25.313)">
    <g id="Group_12002" data-name="Group 12002" transform="translate(23.833 35.205)">
      <path id="Path_8640" data-name="Path 8640" d="M35.493,42.283A7.488,7.488,0,0,0,23.833,48.5h2.939a4.55,4.55,0,0,1,7.076-3.788Z" transform="translate(-23.833 -41.013)" fill="#f47a4d"/>
    </g>
    <path id="Path_8641" data-name="Path 8641" d="M92.385,25.741A40.554,40.554,0,0,0,78.748,43.006L75.541,43a5.525,5.525,0,0,0-2.68-4.076l1.5-2.8a7.961,7.961,0,0,1,2.926,2.7c2.338-4.429,5.4-9.225,10.644-13.018Z" transform="translate(-18.137 -0.158)" fill="#2883c6"/>
    <g id="Group_12004" data-name="Group 12004" transform="translate(34.596 35.205)">
      <path id="Path_8642" data-name="Path 8642" d="M52.575,42.283A7.488,7.488,0,0,0,40.916,48.5h2.939a4.55,4.55,0,0,1,7.076-3.788Z" transform="translate(-40.916 -41.013)" fill="#48babf"/>
      <g id="Group_12003" data-name="Group 12003" transform="translate(10.742)">
        <path id="Path_8643" data-name="Path 8643" d="M65.459,41.013A7.5,7.5,0,0,0,57.965,48.5H60.9A4.527,4.527,0,0,1,66.08,44l1.445-2.69A7.454,7.454,0,0,0,65.459,41.013Z" transform="translate(-57.965 -41.013)" fill="#9f8bc0"/>
      </g>
    </g>
    <g id="Group_12005" data-name="Group 12005" transform="translate(75.918 25.313)">
      <path id="Path_8644" data-name="Path 8644" d="M120.443,38.216A6.191,6.191,0,1,1,111.3,29.87a5.94,5.94,0,0,1,4.359-1.758,6.011,6.011,0,0,1,4.73,2.105l.069-.059v-3.5a8.761,8.761,0,0,0-4.8-1.345,9.069,9.069,0,0,0-6.512,2.55,8.559,8.559,0,0,0-2.651,6.39,8.559,8.559,0,0,0,2.651,6.39,9.153,9.153,0,0,0,6.512,2.525,9.022,9.022,0,0,0,4.8-1.372V38.232Z" transform="translate(-106.5 -25.313)" fill="#fff"/>
      <path id="Path_8645" data-name="Path 8645" d="M142.663,40.57c-.668,0-.842-.347-.842-1.312V35.32c0-3.1-1.684-5-4.557-5a3.881,3.881,0,0,0-3.64,1.981V25.785h-2.947V43.047h2.947V35.865a2.707,2.707,0,0,1,2.749-2.9c1.585,0,2.5,1.065,2.5,2.774V39.9c0,2.179.966,3.269,2.923,3.269a4.268,4.268,0,0,0,1.287-.149v-2.5A2.19,2.19,0,0,1,142.663,40.57Z" transform="translate(-115.444 -25.488)" fill="#fff"/>
    </g>
    <path id="Path_8646" data-name="Path 8646" d="M160.362,35.019V33.212h2.972v8.717c0,1.065.247,1.46.917,1.46.173,0,.4-.025.619-.049v2.4a4.291,4.291,0,0,1-1.46.2,3.258,3.258,0,0,1-1.734-.4,2.3,2.3,0,0,1-1.016-1.51,4.755,4.755,0,0,1-4.284,1.956,5.933,5.933,0,0,1-4.458-1.882,6.511,6.511,0,0,1-1.783-4.656,6.411,6.411,0,0,1,1.783-4.631,5.932,5.932,0,0,1,4.458-1.881C158.38,32.94,159.892,33.831,160.362,35.019Zm-.891,7.157a3.889,3.889,0,0,0,0-5.448,3.7,3.7,0,0,0-2.7-1.09,3.586,3.586,0,0,0-2.65,1.09,4.085,4.085,0,0,0,0,5.448,3.586,3.586,0,0,0,2.65,1.09A3.7,3.7,0,0,0,159.471,42.177Z" transform="translate(-46.724 -2.822)" fill="#fff"/>
    <path id="Path_8647" data-name="Path 8647" d="M175.031,45.708V33.226h2.947v1.783a4.005,4.005,0,0,1,3.739-2.03c2.947,0,4.657,1.906,4.657,5v3.938c0,.966.172,1.312.842,1.312a2.2,2.2,0,0,0,.421-.05v2.5a4.753,4.753,0,0,1-1.288.149c-1.956,0-2.922-1.091-2.922-3.269V38.4a2.489,2.489,0,0,0-2.626-2.774,2.737,2.737,0,0,0-2.823,2.9v7.182Z" transform="translate(-55.934 -2.836)" fill="#fff"/>
    <path id="Path_8648" data-name="Path 8648" d="M205.03,33.212H208v10.4c0,3-.421,4.829-2.1,6.142a7,7,0,0,1-4.409,1.387,10.133,10.133,0,0,1-6.042-1.808l1.436-2.2a7.56,7.56,0,0,0,4.285,1.362,4.525,4.525,0,0,0,2.749-.743,3.674,3.674,0,0,0,1.189-3.17V43.96c-.594,1.065-2.081,1.833-4.062,1.833a6.075,6.075,0,0,1-4.458-1.833,6.712,6.712,0,0,1,.025-9.138,5.879,5.879,0,0,1,4.433-1.881c2.055,0,3.566.866,3.987,2.079Zm-.891,8.891a3.628,3.628,0,0,0,1.113-2.7,3.573,3.573,0,0,0-1.113-2.674,3.7,3.7,0,0,0-2.7-1.09,3.586,3.586,0,0,0-2.65,1.09,3.7,3.7,0,0,0-1.041,2.674,3.757,3.757,0,0,0,1.041,2.7,3.565,3.565,0,0,0,2.65,1.065A3.681,3.681,0,0,0,204.139,42.1Z" transform="translate(-63.249 -2.822)" fill="#fff"/>
    <path id="Path_8649" data-name="Path 8649" d="M216.656,39.408a6.244,6.244,0,0,1,6.538-6.588,5.8,5.8,0,0,1,4.432,1.808,6.2,6.2,0,0,1,1.734,4.483c0,.372-.025.718-.049,1.04H219.6c.1,1.982,1.56,3.27,3.764,3.27a4.6,4.6,0,0,0,3.368-1.437l1.783,1.733a6.921,6.921,0,0,1-5.251,2.229,6.653,6.653,0,0,1-4.78-1.758,6.191,6.191,0,0,1-1.832-4.681Zm9.683-1.337a2.429,2.429,0,0,0-.941-1.907,3.2,3.2,0,0,0-2.2-.817,3.835,3.835,0,0,0-2.4.793,2.719,2.719,0,0,0-1.115,1.932Z" transform="translate(-71.333 -2.777)" fill="#fff"/>
    <path id="Path_8650" data-name="Path 8650" d="M238.587,43.047V25.785h6.589a5.645,5.645,0,0,1,3.912,1.561,5.62,5.62,0,0,1,0,8.073A5.479,5.479,0,0,1,245.176,37h-3.492v6.043Zm3.1-8.842h3.343a2.813,2.813,0,0,0,0-5.621h-3.343Z" transform="translate(-79.446 -0.175)" fill="#fff"/>
    <path id="Path_8651" data-name="Path 8651" d="M259.027,25.785H262V38.96c0,1.214.4,1.734,1.486,1.734a3.181,3.181,0,0,0,.891-.1v2.649a5.344,5.344,0,0,1-1.411.149c-2.625,0-3.938-1.338-3.938-4.037Z" transform="translate(-87.008 -0.175)" fill="#fff"/>
    <path id="Path_8652" data-name="Path 8652" d="M277.549,35.019V33.212h2.972v8.717c0,1.065.248,1.46.917,1.46.174,0,.4-.025.619-.049v2.4a4.292,4.292,0,0,1-1.461.2,3.259,3.259,0,0,1-1.734-.4,2.292,2.292,0,0,1-1.015-1.51,4.755,4.755,0,0,1-4.285,1.956,5.931,5.931,0,0,1-4.457-1.882,6.508,6.508,0,0,1-1.783-4.656,6.409,6.409,0,0,1,1.783-4.631,5.931,5.931,0,0,1,4.457-1.881C275.568,32.94,277.079,33.831,277.549,35.019Zm-.891,7.157a3.888,3.888,0,0,0,0-5.448,3.7,3.7,0,0,0-2.7-1.09,3.585,3.585,0,0,0-2.649,1.09,4.085,4.085,0,0,0,0,5.448,3.585,3.585,0,0,0,2.649,1.09A3.7,3.7,0,0,0,276.658,42.177Z" transform="translate(-90.077 -2.822)" fill="#fff"/>
    <path id="Path_8653" data-name="Path 8653" d="M292.218,45.708V33.226h2.947v1.783a4.006,4.006,0,0,1,3.74-2.03c2.945,0,4.655,1.906,4.655,5v3.938c0,.966.174,1.312.842,1.312a2.178,2.178,0,0,0,.421-.05v2.5a4.737,4.737,0,0,1-1.287.149c-1.956,0-2.922-1.091-2.922-3.269V38.4a2.489,2.489,0,0,0-2.625-2.774,2.738,2.738,0,0,0-2.823,2.9v7.182Z" transform="translate(-99.287 -2.836)" fill="#fff"/>
    <path id="Path_8654" data-name="Path 8654" d="M33.344,35.258a14.881,14.881,0,0,1,2.695-4.125l4.418-.044a11.939,11.939,0,0,0-3.514,4.169" transform="translate(-3.519 -2.137)" fill="#f47a4d"/>
    <path id="Path_8655" data-name="Path 8655" d="M51.179,34.367a15.52,15.52,0,0,1,3.584-5.627l4.428-.06a14.617,14.617,0,0,0-4.414,5.687" transform="translate(-10.116 -1.246)" fill="#48babf"/>
    <path id="Path_8656" data-name="Path 8656" d="M68.016,33.778a23.3,23.3,0,0,1,4.659-6.619l4.439-.071a21.732,21.732,0,0,0-5.5,6.689" transform="translate(-16.345 -0.657)" fill="#9f8bc0"/>
  </g>
</svg>
