<?xml version="1.0" encoding="utf-8"?>
<!-- Generator: Adobe Illustrator 19.0.0, SVG Export Plug-In . SVG Version: 6.00 Build 0)  -->
<svg version="1.1" id="Layer_1" xmlns="http://www.w3.org/2000/svg" xmlns:xlink="http://www.w3.org/1999/xlink" x="0px" y="0px"
	 viewBox="0 0 612 792" style="enable-background:new 0 0 612 792;" xml:space="preserve">
<style type="text/css">
	.st0{fill:url(#SVGID_1_);}
	.st1{fill:#3C3C98;}
	.st2{fill:url(#SVGID_2_);}
	.st3{fill:#FFC435;}
	.st4{fill:url(#SVGID_3_);}
	.st5{fill:#C41E56;}
	.st6{fill:#2C3750;}
	.st7{fill:url(#SVGID_4_);}
	.st8{fill:url(#SVGID_5_);}
	.st9{fill:url(#SVGID_6_);}
</style>
<linearGradient id="SVGID_1_" gradientUnits="userSpaceOnUse" x1="486.4479" y1="355.2961" x2="517.9568" y2="407.0327" gradientTransform="matrix(0.9889 -0.1486 0.1486 0.9889 -54.6172 82.5682)">
	<stop  offset="0" style="stop-color:#27AAE1"/>
	<stop  offset="1" style="stop-color:#3C3C98"/>
</linearGradient>
<polygon class="st0" points="494.3,366 535.2,411.4 511.7,415 469.4,367.1 "/>
<polygon class="st1" points="469.1,366.8 512,414.9 442.2,425.3 "/>
<g>
	
		<linearGradient id="SVGID_2_" gradientUnits="userSpaceOnUse" x1="676.9044" y1="334.0697" x2="676.9044" y2="391.8131" gradientTransform="matrix(0.9741 0.226 -0.226 0.9741 106.5392 -120.7594)">
		<stop  offset="0" style="stop-color:#FFF200"/>
		<stop  offset="0.9996" style="stop-color:#FFCB57"/>
	</linearGradient>
	<path class="st2" d="M664.6,359.8l17.9,4.2c16.8,3.9,27.3,20.7,23.4,37.5c-3.9,16.8-20.7,27.3-37.5,23.4l-18.2-4.4"/>
	<path class="st3" d="M688.6,397.4c-3.9,16.8-20.7,27.3-37.5,23.4c-16.8-3.9-27.3-20.7-23.4-37.5c3.9-16.8,20.7-27.3,37.5-23.4
		C682,363.8,692.5,380.6,688.6,397.4z"/>
</g>
<g>
	
		<linearGradient id="SVGID_3_" gradientUnits="userSpaceOnUse" x1="609.4734" y1="354.3934" x2="609.4734" y2="411.6887" gradientTransform="matrix(0.9974 7.240000e-002 -7.240000e-002 0.9974 31.0004 -38.768)">
		<stop  offset="0" style="stop-color:#F06CA8"/>
		<stop  offset="1" style="stop-color:#C41E56"/>
	</linearGradient>
	<polygon class="st4" points="618.6,419.9 599.1,422.9 603.5,358.5 622.5,366.3 	"/>
	<polygon class="st5" points="599.3,422.9 538.1,417.4 542.5,356.2 603.5,358.5 	"/>
</g>
<g>
	<g>
		<path class="st6" d="M-34.3,400.7v21.2h-11v-54.2h11V387c3.3-3.4,7-5,11.1-5c4.1,0,7.6,1.5,10.4,4.4c2.8,2.9,4.2,6.8,4.2,11.7
			v23.9h-11v-21.5c0-6-2.2-9.1-6.6-9.1c-2.2,0-4.1,0.8-5.7,2.4C-33.5,395.4-34.3,397.7-34.3,400.7z"/>
		<path class="st6" d="M32.6,421.9H22.3v-4.7c-2.8,3.6-6.3,5.3-10.5,5.3s-7.7-1.2-10.5-3.6c-2.8-2.4-4.2-5.6-4.2-9.6
			c0-4,1.5-7,4.4-9c2.9-2,6.9-3,12-3h8.2V397c0-4.2-2.2-6.3-6.6-6.3c-1.9,0-3.9,0.4-6,1.1c-2.1,0.8-3.9,1.7-5.4,2.8l-4.9-7.1
			c5.2-3.7,11.1-5.6,17.7-5.6c4.8,0,8.7,1.2,11.7,3.6c3,2.4,4.5,6.2,4.5,11.3V421.9z M21.6,407v-1.9h-6.9c-4.4,0-6.6,1.4-6.6,4.1
			c0,1.4,0.5,2.5,1.6,3.3c1,0.8,2.5,1.1,4.5,1.1c1.9,0,3.7-0.6,5.1-1.8C20.9,410.5,21.6,408.9,21.6,407z"/>
		<path class="st6" d="M51.4,400v21.9h-11v-39.3h11v4.4c3.3-3.4,7-5,11.2-5c4.1,0,7.6,1.5,10.4,4.4c2.8,2.9,4.2,6.8,4.2,11.7v23.9
			h-11v-22.2c0-6-2.2-9.1-6.6-9.1c-2.2,0-4.1,0.8-5.7,2.4C52.2,394.6,51.4,396.9,51.4,400z"/>
		<path class="st6" d="M114,415.3c-3.5,3.8-7.8,5.8-12.9,5.8c-5.1,0-9.5-1.7-13-5.2c-3.5-3.5-5.3-8.1-5.3-14
			c0-5.8,1.8-10.6,5.4-14.3c3.6-3.7,7.8-5.6,12.5-5.6c4.7,0,8.5,1.9,11.6,5.8v-5.2h11v34.3c0,3.5-0.6,6.6-1.8,9.4
			c-1.2,2.7-2.8,4.9-4.9,6.4c-4,3.2-8.8,4.8-14.3,4.8c-2.9,0-5.9-0.5-8.9-1.4c-3-1-5.7-2.3-8-4.1l4.2-8.3c3.6,2.7,7.4,4.1,11.4,4.1
			c4,0,7.2-1,9.5-3C112.8,422.8,114,419.6,114,415.3z M112.5,401.4c0-3.1-0.9-5.6-2.6-7.4c-1.8-1.8-3.9-2.7-6.5-2.7
			c-2.6,0-4.8,0.9-6.7,2.7c-1.9,1.8-2.8,4.3-2.8,7.4c0,3.1,0.9,5.6,2.7,7.6c1.8,1.9,4.1,2.9,6.7,2.9c2.6,0,4.8-0.9,6.6-2.8
			C111.6,407.1,112.5,404.6,112.5,401.4z"/>
		<path class="st6" d="M165.5,416.2c-4.4,4.2-9.6,6.3-15.6,6.3c-6,0-10.9-1.8-14.8-5.5c-3.9-3.7-5.8-8.6-5.8-14.8
			c0-6.2,2-11.1,6-14.8c4-3.7,8.7-5.5,14.1-5.5c5.4,0,10,1.6,13.8,4.9c3.8,3.3,5.7,7.7,5.7,13.4v5.8h-28.6c0.3,2.1,1.5,3.9,3.4,5.3
			c1.9,1.4,4,2,6.4,2c3.8,0,7-1.3,9.5-3.9L165.5,416.2z M155,392.9c-1.5-1.3-3.3-1.9-5.5-1.9c-2.2,0-4.2,0.7-6,2
			c-1.8,1.3-2.9,3.1-3.1,5.3h17.2C157.4,396,156.5,394.2,155,392.9z"/>
	</g>
	<g>
		<path class="st6" d="M194.5,377.6c-2.5,0-4.6,0.5-6.2,1.5c-1.6,1-2.4,2.6-2.4,4.6c0,2.1,0.8,3.7,2.4,4.7c1.6,1.1,5,2.3,10.3,3.5
			c5.2,1.3,9.2,3,11.8,5.3c2.7,2.3,4,5.7,4,10.1c0,4.5-1.7,8.1-5,10.8c-3.4,2.8-7.8,4.2-13.2,4.2c-8,0-15.1-2.8-21.3-8.3l5.4-6.5
			c5.2,4.5,10.5,6.7,16.1,6.7c2.8,0,5-0.6,6.6-1.8c1.6-1.2,2.4-2.8,2.4-4.7s-0.8-3.5-2.3-4.6c-1.5-1.1-4.2-2.1-7.9-3
			c-3.8-0.9-6.6-1.7-8.5-2.5c-1.9-0.8-3.7-1.7-5.2-3c-3-2.3-4.5-5.8-4.5-10.5c0-4.7,1.7-8.4,5.1-10.9c3.4-2.6,7.7-3.8,12.7-3.8
			c3.3,0,6.5,0.5,9.7,1.6c3.2,1.1,6,2.6,8.3,4.5l-4.6,6.5c-1.5-1.4-3.6-2.5-6.1-3.4C199.5,378,197,377.6,194.5,377.6z"/>
		<path class="st6" d="M229.9,400.9v21h-8.2v-54.1h8.2v22.4c1.2-2.4,2.9-4.3,5.3-5.6c2.4-1.4,4.9-2,7.6-2c4.4,0,7.9,1.3,10.6,4
			c2.7,2.7,4.1,6.6,4.1,11.6v23.8h-8.2v-21.3c0-7.2-3-10.7-8.9-10.7c-2.8,0-5.3,0.9-7.4,2.8C230.9,394.5,229.9,397.3,229.9,400.9z"
			/>
		<path class="st6" d="M298.2,421.9h-7.5v-5.2c-3.2,3.8-7.5,5.8-12.9,5.8c-4,0-7.4-1.1-10-3.4c-2.7-2.3-4-5.3-4-9.2
			c0-3.8,1.4-6.7,4.2-8.6c2.8-1.9,6.6-2.8,11.5-2.8h10.6V397c0-5.2-2.9-7.7-8.6-7.7c-3.6,0-7.4,1.3-11.3,3.9l-3.7-5.1
			c4.7-3.7,10.1-5.6,16.1-5.6c4.6,0,8.3,1.2,11.2,3.5c2.9,2.3,4.3,6,4.3,10.9V421.9z M290,407.5v-3.3h-9.2c-5.9,0-8.8,1.9-8.8,5.6
			c0,1.9,0.7,3.3,2.2,4.3c1.5,1,3.5,1.5,6.1,1.5c2.6,0,4.9-0.7,6.8-2.2C289,411.9,290,409.9,290,407.5z"/>
		<path class="st6" d="M328.2,382.5c5.2,0,9.7,1.8,13.4,5.4c3.7,3.6,5.5,8.4,5.5,14.4c0,6-1.8,10.9-5.5,14.6
			c-3.7,3.8-8,5.6-12.9,5.6c-4.9,0-9.3-2.1-13.2-6.4v20h-8.2v-53h8.2v6.8C318.8,384.9,323,382.5,328.2,382.5z M315.4,402.6
			c0,3.7,1.1,6.7,3.4,9.1c2.2,2.4,5,3.5,8.2,3.5c3.2,0,6-1.2,8.4-3.5c2.4-2.3,3.6-5.4,3.6-9.1c0-3.7-1.2-6.8-3.5-9.3
			c-2.3-2.5-5.1-3.7-8.4-3.7c-3.3,0-6,1.2-8.3,3.7C316.5,395.8,315.4,398.9,315.4,402.6z"/>
		<path class="st6" d="M390.4,406.1H360c0.2,2.8,1.5,5.1,3.9,6.8c2.4,1.7,5.1,2.6,8.2,2.6c4.9,0,8.6-1.5,11.1-4.6l4.7,5.1
			c-4.2,4.3-9.6,6.5-16.4,6.5c-5.5,0-10.1-1.8-13.9-5.4c-3.8-3.6-5.7-8.5-5.7-14.6c0-6.1,1.9-11,5.8-14.6c3.9-3.6,8.5-5.4,13.8-5.4
			c5.3,0,9.8,1.6,13.5,4.8c3.7,3.2,5.5,7.6,5.5,13.2V406.1z M360,399.6h22.3c0-3.3-1-5.8-3.1-7.5c-2-1.8-4.6-2.6-7.6-2.6
			c-3,0-5.7,0.9-8.1,2.7C361.1,394.1,360,396.5,360,399.6z"/>
		<path class="st6" d="M424.9,410.3c0,3.7-1.3,6.7-4,8.9c-2.7,2.2-6.1,3.3-10.3,3.3c-2.8,0-5.8-0.5-8.8-1.5c-3-1-5.7-2.5-8.1-4.3
			l3.9-6.4c4.5,3.4,8.9,5.1,13.1,5.1c1.8,0,3.3-0.4,4.4-1.3c1.1-0.9,1.6-1.9,1.6-3.3c0-1.9-2.6-3.7-7.7-5.3
			c-0.4-0.1-0.7-0.2-0.9-0.3c-8.1-2.2-12.1-5.8-12.1-11c0-3.6,1.4-6.5,4.2-8.7c2.8-2.2,6.4-3.3,10.9-3.3c4.5,0,8.7,1.3,12.7,3.9
			l-3.1,6.1c-3.2-2.1-6.6-3.1-10.3-3.1c-1.9,0-3.5,0.4-4.7,1.1c-1.2,0.7-1.8,1.8-1.8,3.2c0,1.3,0.6,2.2,1.9,2.8
			c0.9,0.4,2.1,0.9,3.7,1.2c1.6,0.4,3,0.8,4.2,1.2c1.2,0.4,2.4,0.8,3.5,1.3c1.1,0.5,2.4,1.2,3.7,2
			C423.6,403.9,424.9,406.6,424.9,410.3z"/>
	</g>
</g>
<g>
	<path class="st6" d="M-52.1,403.6v13c-4.9,3.9-10.3,5.9-16.4,5.9c-7.9,0-14.3-2.5-19.4-7.5c-5.1-5-7.6-11.2-7.6-18.8
		c0-7.6,2.6-13.9,7.8-19c5.2-5.1,11.5-7.6,19-7.6c6.3,0,11.9,1.8,16.7,5.5v13.9c-4.7-9.6-16.2-8.5-16.2-8.5c-4.3,0-8,1.4-11,4.2
		c-3,2.8-4.6,6.6-4.6,11.3c0,4.7,1.4,8.6,4.3,11.4c2.9,2.9,6.4,4.3,10.4,4.3C-69,411.8-57.3,412.6-52.1,403.6z"/>
</g>
<linearGradient id="SVGID_4_" gradientUnits="userSpaceOnUse" x1="486.4479" y1="355.2961" x2="517.9568" y2="407.0327" gradientTransform="matrix(0.9889 -0.1486 0.1486 0.9889 -54.6172 82.5682)">
	<stop  offset="0" style="stop-color:#27AAE1"/>
	<stop  offset="1" style="stop-color:#3C3C98"/>
</linearGradient>
<polygon class="st7" points="494.3,366 535.2,411.4 511.7,415 469.4,367.1 "/>
<polygon class="st1" points="469.1,366.8 512,414.9 442.2,425.3 "/>
<g>
	
		<linearGradient id="SVGID_5_" gradientUnits="userSpaceOnUse" x1="676.9044" y1="334.0697" x2="676.9044" y2="391.8131" gradientTransform="matrix(0.9741 0.226 -0.226 0.9741 106.5392 -120.7594)">
		<stop  offset="0" style="stop-color:#FFF200"/>
		<stop  offset="0.9996" style="stop-color:#FFCB57"/>
	</linearGradient>
	<path class="st8" d="M664.6,359.8l17.9,4.2c16.8,3.9,27.3,20.7,23.4,37.5c-3.9,16.8-20.7,27.3-37.5,23.4l-18.2-4.4"/>
	<path class="st3" d="M688.6,397.4c-3.9,16.8-20.7,27.3-37.5,23.4c-16.8-3.9-27.3-20.7-23.4-37.5c3.9-16.8,20.7-27.3,37.5-23.4
		C682,363.8,692.5,380.6,688.6,397.4z"/>
</g>
<g>
	
		<linearGradient id="SVGID_6_" gradientUnits="userSpaceOnUse" x1="609.4734" y1="354.3934" x2="609.4734" y2="411.6887" gradientTransform="matrix(0.9974 7.240000e-002 -7.240000e-002 0.9974 31.0004 -38.768)">
		<stop  offset="0" style="stop-color:#F06CA8"/>
		<stop  offset="1" style="stop-color:#C41E56"/>
	</linearGradient>
	<polygon class="st9" points="618.6,419.9 599.1,422.9 603.5,358.5 622.5,366.3 	"/>
	<polygon class="st5" points="599.3,422.9 538.1,417.4 542.5,356.2 603.5,358.5 	"/>
</g>
<g>
	<g>
		<path class="st6" d="M-34.3,400.7v21.2h-11v-54.2h11V387c3.3-3.4,7-5,11.1-5c4.1,0,7.6,1.5,10.4,4.4c2.8,2.9,4.2,6.8,4.2,11.7
			v23.9h-11v-21.5c0-6-2.2-9.1-6.6-9.1c-2.2,0-4.1,0.8-5.7,2.4C-33.5,395.4-34.3,397.7-34.3,400.7z"/>
		<path class="st6" d="M32.6,421.9H22.3v-4.7c-2.8,3.6-6.3,5.3-10.5,5.3s-7.7-1.2-10.5-3.6c-2.8-2.4-4.2-5.6-4.2-9.6
			c0-4,1.5-7,4.4-9c2.9-2,6.9-3,12-3h8.2V397c0-4.2-2.2-6.3-6.6-6.3c-1.9,0-3.9,0.4-6,1.1c-2.1,0.8-3.9,1.7-5.4,2.8l-4.9-7.1
			c5.2-3.7,11.1-5.6,17.7-5.6c4.8,0,8.7,1.2,11.7,3.6c3,2.4,4.5,6.2,4.5,11.3V421.9z M21.6,407v-1.9h-6.9c-4.4,0-6.6,1.4-6.6,4.1
			c0,1.4,0.5,2.5,1.6,3.3c1,0.8,2.5,1.1,4.5,1.1c1.9,0,3.7-0.6,5.1-1.8C20.9,410.5,21.6,408.9,21.6,407z"/>
		<path class="st6" d="M51.4,400v21.9h-11v-39.3h11v4.4c3.3-3.4,7-5,11.2-5c4.1,0,7.6,1.5,10.4,4.4c2.8,2.9,4.2,6.8,4.2,11.7v23.9
			h-11v-22.2c0-6-2.2-9.1-6.6-9.1c-2.2,0-4.1,0.8-5.7,2.4C52.2,394.6,51.4,396.9,51.4,400z"/>
		<path class="st6" d="M114,415.3c-3.5,3.8-7.8,5.8-12.9,5.8c-5.1,0-9.5-1.7-13-5.2c-3.5-3.5-5.3-8.1-5.3-14
			c0-5.8,1.8-10.6,5.4-14.3c3.6-3.7,7.8-5.6,12.5-5.6c4.7,0,8.5,1.9,11.6,5.8v-5.2h11v34.3c0,3.5-0.6,6.6-1.8,9.4
			c-1.2,2.7-2.8,4.9-4.9,6.4c-4,3.2-8.8,4.8-14.3,4.8c-2.9,0-5.9-0.5-8.9-1.4c-3-1-5.7-2.3-8-4.1l4.2-8.3c3.6,2.7,7.4,4.1,11.4,4.1
			c4,0,7.2-1,9.5-3C112.8,422.8,114,419.6,114,415.3z M112.5,401.4c0-3.1-0.9-5.6-2.6-7.4c-1.8-1.8-3.9-2.7-6.5-2.7
			c-2.6,0-4.8,0.9-6.7,2.7c-1.9,1.8-2.8,4.3-2.8,7.4c0,3.1,0.9,5.6,2.7,7.6c1.8,1.9,4.1,2.9,6.7,2.9c2.6,0,4.8-0.9,6.6-2.8
			C111.6,407.1,112.5,404.6,112.5,401.4z"/>
		<path class="st6" d="M165.5,416.2c-4.4,4.2-9.6,6.3-15.6,6.3c-6,0-10.9-1.8-14.8-5.5c-3.9-3.7-5.8-8.6-5.8-14.8
			c0-6.2,2-11.1,6-14.8c4-3.7,8.7-5.5,14.1-5.5c5.4,0,10,1.6,13.8,4.9c3.8,3.3,5.7,7.7,5.7,13.4v5.8h-28.6c0.3,2.1,1.5,3.9,3.4,5.3
			c1.9,1.4,4,2,6.4,2c3.8,0,7-1.3,9.5-3.9L165.5,416.2z M155,392.9c-1.5-1.3-3.3-1.9-5.5-1.9c-2.2,0-4.2,0.7-6,2
			c-1.8,1.3-2.9,3.1-3.1,5.3h17.2C157.4,396,156.5,394.2,155,392.9z"/>
	</g>
	<g>
		<path class="st6" d="M194.5,377.6c-2.5,0-4.6,0.5-6.2,1.5c-1.6,1-2.4,2.6-2.4,4.6c0,2.1,0.8,3.7,2.4,4.7c1.6,1.1,5,2.3,10.3,3.5
			c5.2,1.3,9.2,3,11.8,5.3c2.7,2.3,4,5.7,4,10.1c0,4.5-1.7,8.1-5,10.8c-3.4,2.8-7.8,4.2-13.2,4.2c-8,0-15.1-2.8-21.3-8.3l5.4-6.5
			c5.2,4.5,10.5,6.7,16.1,6.7c2.8,0,5-0.6,6.6-1.8c1.6-1.2,2.4-2.8,2.4-4.7s-0.8-3.5-2.3-4.6c-1.5-1.1-4.2-2.1-7.9-3
			c-3.8-0.9-6.6-1.7-8.5-2.5c-1.9-0.8-3.7-1.7-5.2-3c-3-2.3-4.5-5.8-4.5-10.5c0-4.7,1.7-8.4,5.1-10.9c3.4-2.6,7.7-3.8,12.7-3.8
			c3.3,0,6.5,0.5,9.7,1.6c3.2,1.1,6,2.6,8.3,4.5l-4.6,6.5c-1.5-1.4-3.6-2.5-6.1-3.4C199.5,378,197,377.6,194.5,377.6z"/>
		<path class="st6" d="M229.9,400.9v21h-8.2v-54.1h8.2v22.4c1.2-2.4,2.9-4.3,5.3-5.6c2.4-1.4,4.9-2,7.6-2c4.4,0,7.9,1.3,10.6,4
			c2.7,2.7,4.1,6.6,4.1,11.6v23.8h-8.2v-21.3c0-7.2-3-10.7-8.9-10.7c-2.8,0-5.3,0.9-7.4,2.8C230.9,394.5,229.9,397.3,229.9,400.9z"
			/>
		<path class="st6" d="M298.2,421.9h-7.5v-5.2c-3.2,3.8-7.5,5.8-12.9,5.8c-4,0-7.4-1.1-10-3.4c-2.7-2.3-4-5.3-4-9.2
			c0-3.8,1.4-6.7,4.2-8.6c2.8-1.9,6.6-2.8,11.5-2.8h10.6V397c0-5.2-2.9-7.7-8.6-7.7c-3.6,0-7.4,1.3-11.3,3.9l-3.7-5.1
			c4.7-3.7,10.1-5.6,16.1-5.6c4.6,0,8.3,1.2,11.2,3.5c2.9,2.3,4.3,6,4.3,10.9V421.9z M290,407.5v-3.3h-9.2c-5.9,0-8.8,1.9-8.8,5.6
			c0,1.9,0.7,3.3,2.2,4.3c1.5,1,3.5,1.5,6.1,1.5c2.6,0,4.9-0.7,6.8-2.2C289,411.9,290,409.9,290,407.5z"/>
		<path class="st6" d="M328.2,382.5c5.2,0,9.7,1.8,13.4,5.4c3.7,3.6,5.5,8.4,5.5,14.4c0,6-1.8,10.9-5.5,14.6
			c-3.7,3.8-8,5.6-12.9,5.6c-4.9,0-9.3-2.1-13.2-6.4v20h-8.2v-53h8.2v6.8C318.8,384.9,323,382.5,328.2,382.5z M315.4,402.6
			c0,3.7,1.1,6.7,3.4,9.1c2.2,2.4,5,3.5,8.2,3.5c3.2,0,6-1.2,8.4-3.5c2.4-2.3,3.6-5.4,3.6-9.1c0-3.7-1.2-6.8-3.5-9.3
			c-2.3-2.5-5.1-3.7-8.4-3.7c-3.3,0-6,1.2-8.3,3.7C316.5,395.8,315.4,398.9,315.4,402.6z"/>
		<path class="st6" d="M390.4,406.1H360c0.2,2.8,1.5,5.1,3.9,6.8c2.4,1.7,5.1,2.6,8.2,2.6c4.9,0,8.6-1.5,11.1-4.6l4.7,5.1
			c-4.2,4.3-9.6,6.5-16.4,6.5c-5.5,0-10.1-1.8-13.9-5.4c-3.8-3.6-5.7-8.5-5.7-14.6c0-6.1,1.9-11,5.8-14.6c3.9-3.6,8.5-5.4,13.8-5.4
			c5.3,0,9.8,1.6,13.5,4.8c3.7,3.2,5.5,7.6,5.5,13.2V406.1z M360,399.6h22.3c0-3.3-1-5.8-3.1-7.5c-2-1.8-4.6-2.6-7.6-2.6
			c-3,0-5.7,0.9-8.1,2.7C361.1,394.1,360,396.5,360,399.6z"/>
		<path class="st6" d="M424.9,410.3c0,3.7-1.3,6.7-4,8.9c-2.7,2.2-6.1,3.3-10.3,3.3c-2.8,0-5.8-0.5-8.8-1.5c-3-1-5.7-2.5-8.1-4.3
			l3.9-6.4c4.5,3.4,8.9,5.1,13.1,5.1c1.8,0,3.3-0.4,4.4-1.3c1.1-0.9,1.6-1.9,1.6-3.3c0-1.9-2.6-3.7-7.7-5.3
			c-0.4-0.1-0.7-0.2-0.9-0.3c-8.1-2.2-12.1-5.8-12.1-11c0-3.6,1.4-6.5,4.2-8.7c2.8-2.2,6.4-3.3,10.9-3.3c4.5,0,8.7,1.3,12.7,3.9
			l-3.1,6.1c-3.2-2.1-6.6-3.1-10.3-3.1c-1.9,0-3.5,0.4-4.7,1.1c-1.2,0.7-1.8,1.8-1.8,3.2c0,1.3,0.6,2.2,1.9,2.8
			c0.9,0.4,2.1,0.9,3.7,1.2c1.6,0.4,3,0.8,4.2,1.2c1.2,0.4,2.4,0.8,3.5,1.3c1.1,0.5,2.4,1.2,3.7,2
			C423.6,403.9,424.9,406.6,424.9,410.3z"/>
	</g>
</g>
<g>
	<path class="st6" d="M-52.1,403.6v13c-4.9,3.9-10.3,5.9-16.4,5.9c-7.9,0-14.3-2.5-19.4-7.5c-5.1-5-7.6-11.2-7.6-18.8
		c0-7.6,2.6-13.9,7.8-19c5.2-5.1,11.5-7.6,19-7.6c6.3,0,11.9,1.8,16.7,5.5v13.9c-4.7-9.6-16.2-8.5-16.2-8.5c-4.3,0-8,1.4-11,4.2
		c-3,2.8-4.6,6.6-4.6,11.3c0,4.7,1.4,8.6,4.3,11.4c2.9,2.9,6.4,4.3,10.4,4.3C-69,411.8-57.3,412.6-52.1,403.6z"/>
</g>
</svg>
