<?xml version="1.0" encoding="utf-8"?>
<!-- Generator: Adobe Illustrator 19.0.0, SVG Export Plug-In . SVG Version: 6.00 Build 0)  -->
<svg version="1.1" id="Layer_1" xmlns="http://www.w3.org/2000/svg" xmlns:xlink="http://www.w3.org/1999/xlink" x="0px" y="0px"
	 viewBox="-255 334 100 100" style="enable-background:new -255 334 100 100;" xml:space="preserve">
<style type="text/css">
	.st0{fill:#800000;}
</style>
<path class="st0" d="M-205.7,412.2c-3.1,0-5.5-3.5-5.5-6.5c0.1-3.1,2.7-5.4,5.8-5.3c2.9,0.1,5.2,2.4,5.3,5.3
	C-200.2,408.7-202.6,412.2-205.7,412.2z M-205.7,402.3c-1.9,0-3.4,1.5-3.4,3.4c0,2,1.6,4.4,3.4,4.4s3.4-2.5,3.4-4.4
	C-202.3,403.8-203.8,402.3-205.7,402.3z"/>
<path class="st0" d="M-208.3,423c-3.1,0-4.8-0.1-5.9-1.2c-0.7-0.9-1.1-2-1-3.2c0-4.2,5.2-7.7,9.6-7.7s9.6,3.4,9.6,7.7
	c0.1,1.1-0.3,2.3-1,3.1c-1.3,1.3-3.5,1.3-7.1,1.3c-0.9,0-2,0-2.8,0H-208.3z M-205.7,413c-3.3,0-7.5,2.7-7.5,5.6
	c0,1.2,0.2,1.5,0.4,1.7c0.6,0.6,2.6,0.6,5.6,0.6h2.9c2.9,0,5,0,5.7-0.6c0.1-0.1,0.4-0.4,0.4-1.7C-198.2,415.7-202.4,413-205.7,413
	L-205.7,413z"/>
<path class="st0" d="M-205.7,359.8c-4.1,0-7.3-4.7-7.3-8.7c0-4.1,3.3-7.3,7.3-7.3s7.3,3.3,7.3,7.3
	C-198.4,355.1-201.6,359.8-205.7,359.8z M-205.7,345.8c-2.9,0-5.2,2.3-5.2,5.2c0,3,2.4,6.6,5.2,6.6c2.8,0,5.2-3.6,5.2-6.6
	C-200.5,348.1-202.8,345.8-205.7,345.8L-205.7,345.8z"/>
<path class="st0" d="M-209.4,374.9c-4.2,0-6.6-0.1-8-1.6c-0.9-0.9-1.3-2.2-1.3-4.2c0-5.6,7.1-10.3,13-10.3c5.9,0,13,4.8,13,10.3
	c0,1.9-0.4,3.2-1.3,4.1c-1.7,1.7-4.7,1.7-9.7,1.6c-1.3,0-2.7,0-4,0L-209.4,374.9z M-205.7,360.9c-4.8,0-10.9,3.9-10.9,8.2
	c0,1.7,0.4,2.4,0.7,2.7c1,1,3.7,1,8.2,1h4c4.3,0,7.2,0,8.2-1c0.3-0.3,0.7-0.9,0.7-2.6C-194.8,364.8-200.9,360.9-205.7,360.9
	L-205.7,360.9z"/>
<path class="st0" d="M-239.7,412.2c-3.1,0-5.5-3.5-5.5-6.5c0.1-3.1,2.7-5.4,5.8-5.3c2.9,0.1,5.2,2.4,5.3,5.3
	C-234.2,408.7-236.6,412.2-239.7,412.2z M-239.7,402.3c-1.9,0-3.4,1.5-3.4,3.4c0,2,1.6,4.4,3.4,4.4c1.8,0,3.4-2.5,3.4-4.4
	C-236.3,403.8-237.8,402.3-239.7,402.3z"/>
<path class="st0" d="M-242.3,423c-3.1,0-4.8-0.1-5.9-1.2c-0.8-0.9-1.1-2-1-3.2c0-4.2,5.2-7.7,9.6-7.7c4.3,0,9.6,3.4,9.6,7.7
	c0.1,1.1-0.3,2.3-1,3.1c-1.3,1.3-3.5,1.3-7.1,1.3c-0.9,0-2,0-2.8,0H-242.3z M-239.6,413c-3.3,0-7.5,2.7-7.5,5.6
	c0,1.2,0.2,1.5,0.4,1.7c0.6,0.6,2.6,0.6,5.6,0.6h2.9c2.9,0,5,0,5.7-0.6c0.1-0.1,0.4-0.4,0.4-1.7C-232.2,415.7-236.4,413-239.6,413
	L-239.6,413z"/>
<path class="st0" d="M-171.3,412.2c-3.1,0-5.5-3.5-5.5-6.5c0.1-3.1,2.7-5.4,5.8-5.3c2.9,0.1,5.2,2.4,5.3,5.3
	C-165.8,408.7-168.2,412.2-171.3,412.2z M-171.3,402.3c-1.9,0-3.4,1.5-3.4,3.4c0,2,1.6,4.4,3.4,4.4c1.8,0,3.4-2.5,3.4-4.4
	C-167.9,403.8-169.4,402.3-171.3,402.3z"/>
<path class="st0" d="M-173.9,423c-3.1,0-4.8-0.1-5.9-1.2c-0.7-0.9-1.1-2-1-3.2c0-4.2,5.2-7.7,9.6-7.7s9.6,3.4,9.6,7.7
	c0.1,1.1-0.3,2.3-1,3.1c-1.3,1.3-3.5,1.3-7.1,1.3c-0.9,0-1.9,0-2.8,0H-173.9z M-171.3,413c-3.3,0-7.5,2.7-7.5,5.6
	c0,1.2,0.2,1.5,0.4,1.7c0.6,0.6,2.6,0.6,5.6,0.6h2.9c2.9,0,5,0,5.7-0.6c0.1-0.1,0.4-0.4,0.4-1.7C-163.9,415.7-168.1,413-171.3,413
	L-171.3,413z"/>
<path class="st0" d="M-237.8,398c-0.1,0-0.3,0-0.4-0.1c-0.5-0.2-0.8-0.8-0.5-1.4c0,0,0,0,0,0c4-9.5,11.8-16.8,21.5-20
	c0.5-0.2,1.1,0,1.4,0.6s0,1.1-0.6,1.4c0,0-0.1,0-0.1,0c-9.1,3.1-16.5,9.9-20.3,18.8C-237,397.7-237.4,398-237.8,398z"/>
<path class="st0" d="M-173.8,398.4c-0.4,0-0.8-0.3-1-0.7c-3.6-8.9-10.8-15.8-19.9-19c-0.6-0.2-0.9-0.8-0.7-1.3
	c0.2-0.6,0.8-0.9,1.3-0.7c0,0,0.1,0,0.1,0c9.6,3.4,17.3,10.8,21.1,20.2c0.2,0.5,0,1.1-0.6,1.4C-173.6,398.4-173.7,398.4-173.8,398.4
	z"/>
<path class="st0" d="M-205.7,398.2c-0.6,0-1-0.5-1-1v-19.5c-0.1-0.6,0.4-1.1,0.9-1.1c0.6-0.1,1.1,0.4,1.1,0.9c0,0.1,0,0.1,0,0.2
	v19.4C-204.6,397.7-205.1,398.2-205.7,398.2C-205.7,398.2-205.7,398.2-205.7,398.2z"/>
</svg>
