<?xml version="1.0" encoding="utf-8"?>
<!-- Generator: Adobe Illustrator 19.0.0, SVG Export Plug-In . SVG Version: 6.00 Build 0)  -->
<svg version="1.1" id="Layer_1" xmlns="http://www.w3.org/2000/svg" xmlns:xlink="http://www.w3.org/1999/xlink" x="0px" y="0px"
	 viewBox="-255 334 100 100" style="enable-background:new -255 334 100 100;" xml:space="preserve">
<style type="text/css">
	.st0{fill:#800000;}
</style>
<g>
	<g>
		<g>
			<path class="st0" d="M-234.2,383.9c-6.2,0-11.2-5-11.2-11.1c0-6.1,5-11.1,11.2-11.1s11.2,5,11.2,11.1
				C-223,378.9-228,383.9-234.2,383.9z M-234.2,364.7c-4.5,0-8.1,3.6-8.1,8c0,4.4,3.6,8,8.1,8c4.5,0,8.1-3.6,8.1-8
				C-226.1,368.3-229.8,364.7-234.2,364.7z"/>
			<path class="st0" d="M-229.7,414.6h-19.6c-2.2,0-4.1-1.8-4.1-4.1v-5.1c0-10.4,8.6-18.9,19.1-18.9c4.1,0,8.1,1.3,11.4,3.7
				c0.7,0.5,0.8,1.5,0.3,2.2c-0.5,0.7-1.5,0.8-2.2,0.3c-2.8-2.1-6.1-3.1-9.6-3.1c-8.8,0-16,7.1-16,15.8v5.1c0,0.5,0.4,0.9,1,0.9
				h19.6c0.9,0,1.6,0.7,1.6,1.6S-228.9,414.6-229.7,414.6z"/>
		</g>
		<g>
			<path class="st0" d="M-160.7,413.5h-19.6c-0.9,0-1.6-0.7-1.6-1.6s0.7-1.6,1.6-1.6h19.6c0.5,0,1-0.4,1-0.9v-5.1
				c0-8.7-7.2-15.8-16-15.8c-3.7,0-7.3,1.3-10.1,3.6c-0.7,0.5-1.7,0.4-2.2-0.2c-0.5-0.7-0.4-1.7,0.2-2.2c3.4-2.8,7.7-4.3,12.1-4.3
				c10.5,0,19.1,8.5,19.1,18.9v5.1C-156.6,411.6-158.5,413.5-160.7,413.5z"/>
			<path class="st0" d="M-175.8,383.1c-6.2,0-11.2-5-11.2-11.1c0-6.1,5-11.1,11.2-11.1s11.2,5,11.2,11.1S-169.6,383.1-175.8,383.1z
				 M-175.8,364c-4.5,0-8.1,3.6-8.1,8c0,4.4,3.6,8,8.1,8c4.5,0,8.1-3.6,8.1-8C-167.7,367.6-171.3,364-175.8,364z"/>
		</g>
		<g>
			<path class="st0" d="M-183.8,419.7h-42.3c-2.8,0-5.1-2.3-5.1-5.1v-7.2c0-14.3,11.8-26,26.3-26c14.5,0,26.3,11.7,26.3,26v7.2
				C-178.7,417.4-181,419.7-183.8,419.7z M-205,384.6c-12.8,0-23.2,10.3-23.2,22.9v7.2c0,1.1,0.9,1.9,2,1.9h42.3c1.1,0,2-0.9,2-1.9
				v-7.2C-181.8,394.9-192.2,384.6-205,384.6z"/>
			<path class="st0" d="M-205.5,379.6c-7.9,0-14.4-6.4-14.4-14.3s6.5-14.3,14.4-14.3s14.4,6.4,14.4,14.3S-197.6,379.6-205.5,379.6z
				 M-205.5,354.2c-6.2,0-11.3,5-11.3,11.2c0,6.2,5.1,11.2,11.3,11.2s11.3-5,11.3-11.2C-194.2,359.2-199.3,354.2-205.5,354.2z"/>
		</g>
	</g>
</g>
</svg>
