<?xml version="1.0" encoding="utf-8"?>
<!-- Generator: Adobe Illustrator 19.0.0, SVG Export Plug-In . SVG Version: 6.00 Build 0)  -->
<svg version="1.1" id="Layer_1" xmlns="http://www.w3.org/2000/svg" xmlns:xlink="http://www.w3.org/1999/xlink" x="0px" y="0px"
	 viewBox="-255 334 100 100" style="enable-background:new -255 334 100 100;" xml:space="preserve">
<style type="text/css">
	.st0{fill:#800000;}
</style>
<path class="st0" d="M-162.4,373.7h-16.2c-0.8,0-1.5,0.7-1.5,1.5v4.4h-9.9l-12.9-8.6c-0.5-0.3-1.1-0.3-1.6,0l-12.9,8.6h-9.5l1-4.1
	c0.2-0.8-0.3-1.6-1.1-1.8c-0.1,0-0.2,0-0.4,0h-8.9v-11.8c0-0.8,0.7-1.5,1.5-1.5h19.4c0.7,3.4,3.7,5.9,7.2,5.9h8.9
	c4.1,0,7.4-3.3,7.4-7.4c0-4.1-3.3-7.4-7.4-7.4h-8.9c-3.5,0-6.5,2.5-7.2,5.9h-19.4c-2.4,0-4.4,2-4.4,4.4v11.8h-5.9
	c-0.7,0-1.3,0.5-1.4,1.1l-3,11.8c-0.2,0.8,0.3,1.6,1.1,1.8c0.1,0,0.2,0,0.4,0h8.9v5.9c0,2.4,2,4.4,4.4,4.4h28.1c2.4,0,4.4-2,4.4-4.4
	v-3.6l12.3-8.2h9.9v4.4c0,0.8,0.7,1.5,1.5,1.5h7.4v13.2c-2.3-0.8-4.8-0.6-7,0.5l-2.5,1.3c-0.5,0.3-0.8,0.8-0.8,1.3v3h-12
	c-0.7-3.4-3.7-5.9-7.2-5.9h-8.9c-4.1,0-7.4,3.3-7.4,7.4s3.3,7.4,7.4,7.4h8.9c3.5,0,6.5-2.5,7.2-5.9h12v4.4c0,0.8,0.7,1.5,1.5,1.5
	h17.7c0.8,0,1.5-0.7,1.5-1.5v-11.8c0-0.8-0.7-1.5-1.5-1.5c-0.1,0-0.2,0-0.4,0l-3.2,0.8c-0.8,0.2-1.6,0.2-2.4,0.1v-14.3h5.9
	c0.8,0,1.5-0.7,1.5-1.5v-11.8C-160.9,374.4-161.6,373.7-162.4,373.7z M-208.2,354.5h8.9c2.4,0,4.4,2,4.4,4.4c0,2.4-2,4.4-4.4,4.4
	h-8.9c-2.4,0-4.4-2-4.4-4.4C-212.6,356.5-210.6,354.5-208.2,354.5z M-243.9,376.7h14.7l-2.2,8.9h-14.7L-243.9,376.7z M-206.7,395.9
	h-28.1c-0.8,0-1.5-0.7-1.5-1.5v-5.9h5.9c0.7,0,1.3-0.5,1.4-1.1l1.2-4.8h10.2l12.3,8.2v3.6C-205.2,395.2-205.9,395.9-206.7,395.9z
	 M-203.7,388.2l-10.6-7.1l10.6-7.1l10.6,7.1L-203.7,388.2z M-200.8,413.6h-8.9c-2.4,0-4.4-2-4.4-4.4c0-2.4,2-4.4,4.4-4.4h8.9
	c2.4,0,4.4,2,4.4,4.4C-196.3,411.6-198.3,413.6-200.8,413.6z M-165.2,405.5l1.3-0.3v8.4h-14.8v-8l1.7-0.8c1.7-0.9,3.7-0.9,5.5,0
	C-169.5,405.8-167.3,406-165.2,405.5z M-163.8,385.5h-13.3v-8.9h13.3V385.5z"/>
</svg>
