<?xml version="1.0" encoding="utf-8"?>
<!-- Generator: Adobe Illustrator 19.0.0, SVG Export Plug-In . SVG Version: 6.00 Build 0)  -->
<svg version="1.1" id="Layer_1" xmlns="http://www.w3.org/2000/svg" xmlns:xlink="http://www.w3.org/1999/xlink" x="0px" y="0px"
	 viewBox="-255 334 100 100" style="enable-background:new -255 334 100 100;" xml:space="preserve">
<style type="text/css">
	.st0{fill:#800000;}
</style>
<g>
	<path class="st0" d="M-171.1,372.7h-16.4c-0.8,0-1.5,0.7-1.5,1.5c0,0.8,0.7,1.5,1.5,1.5h14.9v34.5h-64.9v-34.5h14.9
		c0.8,0,1.5-0.7,1.5-1.5c0-0.8-0.7-1.5-1.5-1.5h-16.4c-0.8,0-1.5,0.7-1.5,1.5v36v9.3v1.5h1.5h28.3v6.4h-7.3c-0.8,0-1.5,0.7-1.5,1.5
		c0,0.8,0.7,1.5,1.5,1.5h25.8c0.8,0,1.5-0.7,1.5-1.5c0-0.8-0.7-1.5-1.5-1.5h-7.3v-6.4h28.3h1.5v-1.5v-9.3v-36
		C-169.6,373.4-170.2,372.7-171.1,372.7z M-202.4,427.5h-5.2v-6.4h5.2V427.5z M-172.6,418.1h-64.9v-4.8h64.9
		C-172.6,413.3-172.6,418.1-172.6,418.1z"/>
	<path class="st0" d="M-194.8,385.5c0.8,0,1.5-0.7,1.5-1.5v-22.9h8.7c0.7,3.6,3.9,6.4,7.8,6.4c4.3,0,7.9-3.5,7.9-7.9
		c0-4.4-3.5-7.9-7.9-7.9c-3.8,0-7.1,2.8-7.8,6.4h-10.2c-0.8,0-1.5,0.7-1.5,1.5V384C-196.3,384.8-195.6,385.5-194.8,385.5z
		 M-176.8,354.7c2.7,0,4.9,2.2,4.9,4.9c0,2.7-2.2,4.9-4.9,4.9s-4.9-2.2-4.9-4.9C-181.7,356.9-179.5,354.7-176.8,354.7z"/>
	<path class="st0" d="M-206.4,353.2v38.5c0,0.8,0.7,1.5,1.5,1.5s1.5-0.7,1.5-1.5v-38.5c3.6-0.8,6.3-3.9,6.3-7.7
		c0-4.4-3.5-7.9-7.9-7.9s-7.9,3.5-7.9,7.9C-212.9,349.3-210.1,352.5-206.4,353.2z M-205,340.5c2.7,0,4.9,2.2,4.9,4.9
		c0,2.7-2.2,4.9-4.9,4.9s-4.9-2.2-4.9-4.9C-209.9,342.7-207.7,340.5-205,340.5z"/>
	<path class="st0" d="M-233.2,367.5c3.8,0,7.1-2.8,7.8-6.4h9V384c0,0.8,0.7,1.5,1.5,1.5s1.5-0.7,1.5-1.5v-24.4
		c0-0.8-0.7-1.5-1.5-1.5h-10.5c-0.7-3.6-3.9-6.4-7.8-6.4c-4.4,0-7.9,3.5-7.9,7.9C-241.1,363.9-237.5,367.5-233.2,367.5z
		 M-233.2,354.7c2.7,0,4.9,2.2,4.9,4.9c0,2.7-2.2,4.9-4.9,4.9s-4.9-2.2-4.9-4.9C-238.1,356.9-235.9,354.7-233.2,354.7z"/>
</g>
</svg>
