<?xml version="1.0" encoding="UTF-8" standalone="no"?>
<!-- Generator: Adobe Illustrator 19.0.0, SVG Export Plug-In . SVG Version: 6.00 Build 0)  -->

<svg
   xmlns:dc="http://purl.org/dc/elements/1.1/"
   xmlns:cc="http://creativecommons.org/ns#"
   xmlns:rdf="http://www.w3.org/1999/02/22-rdf-syntax-ns#"
   xmlns:svg="http://www.w3.org/2000/svg"
   xmlns="http://www.w3.org/2000/svg"
   xmlns:sodipodi="http://sodipodi.sourceforge.net/DTD/sodipodi-0.dtd"
   xmlns:inkscape="http://www.inkscape.org/namespaces/inkscape"
   version="1.1"
   id="Layer_1"
   x="0px"
   y="0px"
   viewBox="0 0 612 792"
   style="enable-background:new 0 0 612 792;"
   xml:space="preserve"
   inkscape:version="0.91 r13725"
   sodipodi:docname="policy.svg"><metadata
     id="metadata33"><rdf:RDF><cc:Work
         rdf:about=""><dc:format>image/svg+xml</dc:format><dc:type
           rdf:resource="http://purl.org/dc/dcmitype/StillImage" /></cc:Work></rdf:RDF></metadata><defs
     id="defs31" /><sodipodi:namedview
     borderopacity="1"
     objecttolerance="10"
     gridtolerance="10"
     guidetolerance="10"
     inkscape:pageopacity="0"
     inkscape:pageshadow="2"
     inkscape:window-width="640"
     inkscape:window-height="480"
     id="namedview29"
     showgrid="false"
     inkscape:zoom="0.2979798"
     inkscape:cx="306"
     inkscape:cy="396"
     inkscape:window-x="10"
     inkscape:window-y="34"
     inkscape:window-maximized="0"
     inkscape:current-layer="Layer_1" /><style
     type="text/css"
     id="style3">
</style><g
     id="g5"
     transform="matrix(1.4790458,0,0,1.491055,-144.76935,-137.30016)"><path
       class="st0"
       d="m 264.2,406.6 c 35.4,0 70.3,0 105.2,0 0,-7 0,-13.7 0,-20.8 -1.2,0 -2.2,0 -3.3,0 -32.8,0 -65.7,0 -98.5,0 -0.7,0 -1.5,-0.2 -2.1,0.1 -0.5,0.2 -1.2,0.8 -1.3,1.3 -0.1,6.4 0,12.8 0,19.4 z m 105.2,-62.7 c -35.1,0 -70.1,0 -105.1,0 0,7 0,13.7 0,20.6 35.1,0 70,0 105.1,0 0,-6.9 0,-13.6 0,-20.6 z m -9.7,84.3 c -32.1,0 -63.7,0 -95.4,0 0,6.9 0,13.7 0,20.5 0.6,0.1 1,0.2 1.4,0.2 23.9,0 47.9,0 71.8,0 0.8,0 1.8,-0.3 2.4,-0.9 6.5,-6.4 13,-12.9 19.8,-19.8 z m 66.6,27 c 4.2,-4 8.8,-8.1 13,-12.6 4,-4.2 4,-10.4 0.1,-14.6 -5.5,-5.9 -11.3,-11.7 -17.2,-17.2 -4,-3.8 -10.1,-3.9 -14.2,-0.2 -4.7,4.3 -8.9,9 -13.3,13.5 10.5,10.4 21.1,20.8 31.6,31.1 z M 242.9,385.8 c -5.6,0 -11,0 -16.4,0 -4.9,0 -4.4,-0.7 -4.4,4.4 0,5.4 0,10.8 0,16.4 7.2,0 14,0 20.8,0 0,-6.9 0,-13.5 0,-20.8 z m -20.6,-41.9 c 0,7 0,13.7 0,20.6 7,0 13.7,0 20.5,0 0,-6.9 0,-13.7 0,-20.6 -7,0 -13.7,0 -20.5,0 z m 20.5,104.9 c 0,-7 0,-13.7 0,-20.6 -6.9,0 -13.7,0 -20.6,0 0,6.9 0,13.7 0,20.6 6.9,0 13.6,0 20.6,0 z"
       id="path7"
       inkscape:connector-curvature="0"
        /><path
       d="m 394.2,259.1 c 1.1,0.3 2.2,0.6 3.3,0.8 14.9,3.5 24.6,15.5 24.8,31.5 0.2,31.4 0.1,62.7 0.1,94.1 0,0.6 -0.1,1.2 -0.2,2.1 -7.1,-1.3 -13.9,-0.5 -20.7,2.6 0,-29.8 0,-59.1 0,-88.6 -70.5,0 -140.7,0 -211.3,0 0,1.2 0,2.2 0,3.3 0,58 0,115.9 0,173.9 0,8.6 4,12.7 12.6,12.7 33.3,0 66.6,0 100,0 1.1,0 2.1,0 3.4,0 -0.1,0.7 -0.1,1.2 -0.2,1.6 -1.7,5.8 -3.4,11.6 -5,17.5 -0.4,1.4 -1.1,1.9 -2.6,1.9 -32.3,0 -64.7,0.2 -97,-0.1 -16.9,-0.2 -28.4,-10.5 -31.6,-27.1 -0.1,-0.3 -0.3,-0.6 -0.5,-0.9 0,-65.6 0,-131.1 0,-196.7 0.2,-0.5 0.4,-1 0.5,-1.5 2.6,-13.8 10.8,-22.4 24.3,-26 1.2,-0.3 2.4,-0.6 3.6,-0.9 65.4,-0.2 131,-0.2 196.5,-0.2 z"
       id="path9"
       inkscape:connector-curvature="0" /><path
       class="st0"
       d="m 197.5,259.1 c -1.2,0.3 -2.4,0.5 -3.6,0.9 -13.5,3.6 -21.7,12.2 -24.3,26 -0.1,0.5 -0.3,1 -0.5,1.5 0,-9.4 0,-18.8 0,-28.4 9.5,0 19,0 28.4,0 z"
       id="path11"
       inkscape:connector-curvature="0"
        /><path
       d="m 416,467.9 c -5.1,5.1 -10.1,10.2 -15.1,15.3 -11.9,11.9 -23.8,23.7 -35.7,35.5 -1.1,1.1 -2.5,2.1 -3.9,2.6 -12.1,3.7 -24.3,7.2 -36.4,10.8 -0.2,0.1 -0.3,0.1 -0.5,0.2 -3.9,0.9 -6.9,-2 -5.8,-5.8 3.6,-12.5 7.2,-25 10.9,-37.5 0.3,-1 0.9,-2 1.6,-2.7 17.1,-17.1 34.3,-34.2 51.4,-51.2 0.1,-0.1 0.3,-0.2 0.2,-0.1 11.1,10.9 22.2,21.8 33.3,32.9 z m -78.1,24.9 c -2.1,7.1 -4.1,14 -6,20.9 -0.5,2 3.9,5.4 6,4.8 5.8,-1.7 11.6,-3.5 17.4,-5.1 1.9,-0.5 2.1,-1.3 1.7,-3.1 -0.9,-3.9 -1.7,-7.8 -2.3,-11.8 -0.3,-2 -1.2,-2.7 -3,-3 -4.4,-0.8 -8.9,-1.7 -13.8,-2.7 z"
       id="path13"
       inkscape:connector-curvature="0" /><path
       d="m 264.2,406.6 c 0,-6.6 0,-13 0.1,-19.4 0,-0.4 0.7,-1.1 1.3,-1.3 0.6,-0.2 1.4,-0.1 2.1,-0.1 32.8,0 65.7,0 98.5,0 1,0 2.1,0 3.3,0 0,7.1 0,13.8 0,20.8 -35,0 -70,0 -105.3,0 z"
       id="path15"
       inkscape:connector-curvature="0" /><path
       d="m 369.4,343.9 c 0,7 0,13.7 0,20.6 -35.1,0 -70,0 -105.1,0 0,-6.9 0,-13.6 0,-20.6 35,0 69.9,0 105.1,0 z"
       id="path17"
       inkscape:connector-curvature="0" /><path
       d="m 359.7,428.2 c -6.8,6.8 -13.3,13.4 -19.8,19.8 -0.6,0.5 -1.6,0.9 -2.4,0.9 -23.9,0 -47.9,0 -71.8,0 -0.4,0 -0.9,-0.1 -1.4,-0.2 0,-6.8 0,-13.6 0,-20.5 31.7,0 63.4,0 95.4,0 z"
       id="path19"
       inkscape:connector-curvature="0" /><path
       d="m 426.3,455.2 c -10.5,-10.3 -21.1,-20.8 -31.6,-31.1 4.4,-4.5 8.7,-9.2 13.3,-13.5 4,-3.7 10.2,-3.6 14.2,0.2 5.9,5.6 11.7,11.3 17.2,17.2 3.9,4.2 3.9,10.4 -0.1,14.6 -4.2,4.5 -8.8,8.6 -13,12.6 z"
       id="path21"
       inkscape:connector-curvature="0" /><path
       d="m 242.9,385.8 c 0,7.2 0,13.9 0,20.8 -6.9,0 -13.7,0 -20.8,0 0,-5.5 0,-10.9 0,-16.4 0,-5.1 -0.5,-4.4 4.4,-4.4 5.3,0 10.8,0 16.4,0 z"
       id="path23"
       inkscape:connector-curvature="0" /><path
       d="m 222.3,343.9 c 6.9,0 13.6,0 20.5,0 0,6.9 0,13.7 0,20.6 -6.8,0 -13.6,0 -20.5,0 0,-6.9 0,-13.7 0,-20.6 z"
       id="path25"
       inkscape:connector-curvature="0" /><path
       d="m 242.8,448.8 c -7,0 -13.7,0 -20.6,0 0,-6.9 0,-13.6 0,-20.6 6.9,0 13.7,0 20.6,0 0,6.9 0,13.6 0,20.6 z"
       id="path27"
       inkscape:connector-curvature="0" /></g></svg>