<?xml version="1.0" encoding="UTF-8" standalone="no"?>
<!-- Generator: Adobe Illustrator 19.0.0, SVG Export Plug-In . SVG Version: 6.00 Build 0)  -->

<svg
   xmlns:dc="http://purl.org/dc/elements/1.1/"
   xmlns:cc="http://creativecommons.org/ns#"
   xmlns:rdf="http://www.w3.org/1999/02/22-rdf-syntax-ns#"
   xmlns:svg="http://www.w3.org/2000/svg"
   xmlns="http://www.w3.org/2000/svg"
   xmlns:sodipodi="http://sodipodi.sourceforge.net/DTD/sodipodi-0.dtd"
   xmlns:inkscape="http://www.inkscape.org/namespaces/inkscape"
   version="1.1"
   id="Layer_1"
   x="0px"
   y="0px"
   viewBox="0 0 612 792"
   style="enable-background:new 0 0 612 792;"
   xml:space="preserve"
   inkscape:version="0.91 r13725"
   sodipodi:docname="process.svg"><metadata
     id="metadata13"><rdf:RDF><cc:Work
         rdf:about=""><dc:format>image/svg+xml</dc:format><dc:type
           rdf:resource="http://purl.org/dc/dcmitype/StillImage" /></cc:Work></rdf:RDF></metadata><defs
     id="defs11" /><sodipodi:namedview
     pagecolor="#ffffff"
     bordercolor="#666666"
     borderopacity="1"
     objecttolerance="10"
     gridtolerance="10"
     guidetolerance="10"
     inkscape:pageopacity="0"
     inkscape:pageshadow="2"
     inkscape:window-width="640"
     inkscape:window-height="480"
     id="namedview9"
     showgrid="false"
     inkscape:zoom="0.2979798"
     inkscape:cx="306"
     inkscape:cy="396"
     inkscape:window-x="2532"
     inkscape:window-y="279"
     inkscape:window-maximized="0"
     inkscape:current-layer="Layer_1" /><path
     d="m 77.322031,333.63964 c 10.224893,-3.67868 20.997552,-6.06982 30.492099,-11.21998 12.96371,-6.98948 18.07616,-23.17567 13.69406,-37.5225 -0.73035,-2.39114 -1.64329,-4.59835 -2.55624,-6.80557 -9.49453,-20.96845 -9.49453,-20.96845 6.20798,-36.78676 14.60699,-14.71471 14.60699,-14.71471 33.59609,-5.70194 23.00601,10.85208 42.17767,2.94294 50.94188,-20.96849 7.3035,-20.23271 7.3035,-20.23271 28.66622,-20.23271 21.7279,0 21.7279,0 29.21398,20.6006 8.39902,23.35961 27.93587,31.26875 50.39412,20.78451 19.35427,-9.01274 19.17169,-9.01274 34.32644,5.8859 5.11244,5.15014 10.59005,10.11636 15.88509,15.08257 -3.83433,8.27702 -7.48608,15.45045 -10.59006,22.62387 -8.76421,19.68092 -0.73036,39.36185 19.17166,47.08709 7.30351,2.94293 17.5284,3.86259 20.99757,9.19668 3.83433,5.88588 1.46069,16.00225 1.64328,24.09533 0.18258,18.76125 0,18.76125 -17.52838,25.01501 -26.84035,9.56456 -34.32644,27.95795 -22.09309,54.07656 2.55623,5.51802 5.11244,11.03605 8.21644,17.47372 -9.31196,9.19668 -18.62392,18.57731 -28.11846,27.40613 -1.4607,1.28754 -4.92986,1.47148 -6.93832,0.73575 -6.39056,-2.57508 -12.59854,-6.06984 -18.98909,-8.82882 -17.89355,-7.72524 -37.06524,0.36786 -44.55132,18.39338 -0.54776,1.1036 -0.91294,2.20721 -1.27811,3.49474 -8.03385,21.52026 -8.03385,21.52026 -31.22244,21.52026 -19.53685,0 -19.53685,0 -26.11,-18.39339 -9.31198,-26.30253 -27.93588,-34.02776 -53.13294,-21.88815 -17.16321,8.27705 -17.3458,8.27705 -30.67468,-5.33406 -5.47762,-5.70195 -14.24183,-10.8521 -15.33735,-17.47371 -1.27812,-6.43769 5.11244,-14.34685 8.21644,-21.52026 8.94679,-20.41667 1.09553,-39.91367 -19.53686,-47.63888 -7.303479,-2.75901 -14.972157,-4.78229 -22.458243,-6.98949 -0.547766,-15.45044 -0.547766,-30.90088 -0.547766,-46.16739 z m 220.017819,22.8078 c -0.18258,-32.5563 -26.29259,-59.22671 -58.61055,-59.41066 -32.50058,-0.18391 -59.15832,26.67043 -59.15832,59.59457 0,32.92418 27.02292,59.77853 59.5235,59.41067 32.31796,-0.36789 58.24537,-26.85438 58.24537,-59.59458 z"
     id="path3"
     inkscape:connector-curvature="0" /><path
     d="m 544.74576,506.53747 c -3.46917,1.28754 -6.75574,2.57507 -10.22489,3.86261 -13.14631,4.96622 -17.16323,14.71471 -11.503,27.77403 1.4607,3.49473 4.1995,8.64486 2.9214,10.66816 -3.65176,5.51801 -8.9468,10.11636 -14.05923,14.1629 -1.27812,0.91968 -5.11245,-0.91966 -7.48609,-2.02326 -16.61545,-7.5413 -25.56222,-4.59834 -30.85726,12.50748 -2.7388,8.82882 -8.21643,7.90916 -14.60701,7.90916 -6.39055,0 -12.05076,0.73575 -14.60698,-7.90916 -5.29504,-17.10582 -14.42441,-20.78452 -30.49209,-12.32356 -8.94679,4.78229 -11.6856,-2.2072 -16.43287,-6.25376 -4.74726,-3.86262 -7.48608,-7.54127 -3.83434,-14.7147 8.21644,-16.00224 4.56469,-25.19894 -12.7811,-30.71697 -9.67715,-2.94293 -7.30352,-9.56457 -7.48611,-16.00224 -0.18258,-5.88588 -0.54776,-10.66816 7.30353,-13.24323 17.71095,-5.70198 20.81494,-14.34684 12.7811,-31.45271 -2.37363,-4.78226 -2.00846,-7.72521 1.82587,-11.95569 7.1209,-7.90916 12.96371,-12.69144 24.28413,-5.70195 9.49453,5.88589 19.53684,0 23.91894,-11.03603 1.64328,-3.86262 2.9214,-10.11637 5.47762,-10.85209 6.20796,-1.6554 13.32888,-0.91968 19.90205,-0.36787 1.64328,0.18393 3.28656,3.86261 4.1995,6.25375 6.93832,18.20946 14.60698,21.52027 31.95278,13.24323 4.92987,-2.39113 8.7642,-2.39113 11.503,2.39115 3.104,5.33406 13.32889,6.4377 8.7642,16.55405 -9.31195,20.96845 -3.83435,30.53301 19.35427,34.76349 0.18258,8.46096 0.18258,16.55405 0.18258,24.46321 z M 490.33472,494.7657 c -0.18259,-17.65765 -13.87664,-31.08483 -31.58763,-30.90089 -17.34579,0.18394 -31.03984,14.1629 -30.85726,31.82054 0.18259,17.28981 14.42441,31.26877 31.58761,31.08486 17.34583,-0.18395 31.03986,-14.34685 30.85728,-32.00451 z"
     id="path5"
     inkscape:connector-curvature="0" /><path
     d="m 296.60951,622.59974 c -3.65175,-2.20721 -6.75575,-4.04654 -9.85975,-5.70195 1.64329,-16.55405 1.64329,-16.55405 -13.69404,-13.79504 -1.82587,-3.12688 -3.83433,-6.43769 -6.02538,-10.11637 1.64328,-1.83934 2.9214,-3.3108 4.3821,-4.78227 5.11244,-5.8859 4.56468,-9.01277 -2.55622,-11.03604 -4.3821,-1.28754 -6.75574,-2.57507 -6.93834,-7.7252 -0.18258,-5.51802 2.00846,-7.35736 6.93834,-8.64491 7.30349,-2.02327 7.66866,-5.15014 2.55622,-11.03602 -1.27811,-1.28754 -2.55622,-2.57508 -4.19951,-4.41442 1.82587,-3.31081 3.65175,-6.80555 5.47761,-10.11635 16.61545,1.47146 16.61545,1.47146 13.69405,-13.42719 5.29503,-3.86262 9.85974,-9.01275 16.43289,-0.73575 3.28656,4.23048 8.03384,2.75903 8.76419,-2.20719 1.64328,-9.93243 7.66866,-9.01275 14.97216,-7.54129 0.73036,2.39113 1.4607,5.15014 2.37364,7.54129 1.82587,4.96622 5.6602,6.43767 8.94678,2.20719 6.39056,-8.277 11.13781,-3.12687 16.43287,0.73575 -3.10399,15.63438 -2.37364,16.37013 13.32886,13.0593 1.82588,3.12687 3.83434,6.4377 5.8428,9.56457 -9.67712,13.61111 -9.67712,13.61111 4.74729,18.94518 0.73033,6.62163 2.37365,13.05929 -7.85127,14.53079 -4.92986,0.73572 -6.02538,4.9662 -2.37363,9.01275 1.64327,1.83933 3.83432,3.12688 6.20798,5.15015 -2.37366,4.23048 -4.19952,7.54128 -6.0254,10.66817 -16.79803,-0.91969 -16.79803,-0.91969 -13.87663,13.97897 -3.10399,1.83934 -6.39057,3.86262 -10.04231,6.25374 -1.6433,-1.47146 -3.28658,-2.94293 -4.74727,-4.23048 -5.8428,-5.15014 -9.12937,-4.78227 -10.95525,2.57509 -1.2781,4.96621 -3.28656,6.98948 -8.58161,6.98948 -5.29503,0 -6.39055,-2.57507 -7.66867,-6.98948 -2.00846,-7.17343 -5.29503,-7.72523 -10.95524,-2.57509 -1.4607,0.73575 -2.7388,2.02327 -4.74726,3.86262 z m 22.82341,-31.08483 c 12.78111,0.36787 22.82342,-9.01275 23.37118,-21.88812 0.36519,-12.69144 -9.12936,-23.17568 -21.7279,-23.72747 -12.41593,-0.5518 -23.00599,9.56457 -23.37117,22.07205 -0.1826,12.87539 9.12937,23.17567 21.72789,23.54354 z"
     id="path7"
     inkscape:connector-curvature="0" /></svg>