<?xml version="1.0" encoding="UTF-8" standalone="no"?>
<!-- Generator: Adobe Illustrator 19.0.0, SVG Export Plug-In . SVG Version: 6.00 Build 0)  -->

<svg
   xmlns:dc="http://purl.org/dc/elements/1.1/"
   xmlns:cc="http://creativecommons.org/ns#"
   xmlns:rdf="http://www.w3.org/1999/02/22-rdf-syntax-ns#"
   xmlns:svg="http://www.w3.org/2000/svg"
   xmlns="http://www.w3.org/2000/svg"
   xmlns:sodipodi="http://sodipodi.sourceforge.net/DTD/sodipodi-0.dtd"
   xmlns:inkscape="http://www.inkscape.org/namespaces/inkscape"
   version="1.1"
   id="Layer_1"
   x="0px"
   y="0px"
   viewBox="0 0 612 792"
   style="enable-background:new 0 0 612 792;"
   xml:space="preserve"
   inkscape:version="0.91 r13725"
   sodipodi:docname="role.svg"><metadata
     id="metadata13"><rdf:RDF><cc:Work
         rdf:about=""><dc:format>image/svg+xml</dc:format><dc:type
           rdf:resource="http://purl.org/dc/dcmitype/StillImage" /></cc:Work></rdf:RDF></metadata><defs
     id="defs11" /><sodipodi:namedview
     pagecolor="#ffffff"
     bordercolor="#666666"
     borderopacity="1"
     objecttolerance="10"
     gridtolerance="10"
     guidetolerance="10"
     inkscape:pageopacity="0"
     inkscape:pageshadow="2"
     inkscape:window-width="640"
     inkscape:window-height="480"
     id="namedview9"
     showgrid="false"
     inkscape:zoom="0.2979798"
     inkscape:cx="306"
     inkscape:cy="396"
     inkscape:window-x="2034"
     inkscape:window-y="280"
     inkscape:window-maximized="0"
     inkscape:current-layer="Layer_1" /><g
     id="g3"
     transform="matrix(1.6156647,0,0,1.5033899,-187.39265,-174.17288)"><path
       d="m 275,246 c 7.7,0 15.3,0 23,0 0.9,0.3 1.8,0.7 2.8,0.9 34.1,4.5 54.2,25.2 57.3,59.4 0.8,8.4 0.8,16.8 1.2,25.2 6.6,1 9.5,3 10.1,9.4 0.6,5.7 0.5,11.7 -1,17.2 -2.7,10.2 -7.8,14 -16.6,14.1 -0.2,0.4 -0.6,0.8 -0.7,1.2 -5.9,16.4 -14.9,30.6 -27.7,42.7 -4.4,4.1 -6.8,11 -8.5,17 -1.9,6.5 3.1,12 9.8,13 2.9,0.4 5.8,0.9 9.2,1.4 -5.7,9.7 -11,18.8 -16.4,28 4.8,2.9 9.1,5.5 13.4,8.1 5.6,3.4 5.6,5.7 0.2,9.3 -4.4,2.9 -8.8,5.7 -13.1,8.5 0.9,2.1 1.5,3.5 2.5,5.6 -2.6,0 -4.5,0 -6.4,0 -52.3,0 -104.6,0.1 -156.9,0.1 0,-6 0,-12 0,-18 7.8,-15.3 21.4,-23.7 36.5,-29.9 16.9,-6.9 34.6,-10.8 52.6,-13.1 7.8,-1 12.8,-7 10.4,-14.3 -2,-6 -4.9,-12.3 -9.3,-16.6 -9.9,-9.8 -17.7,-20.6 -23.3,-33.3 -1,-2.2 -2,-4.5 -2.9,-6.7 -7.3,1.7 -10.7,0.4 -14.5,-5.7 -4.3,-6.9 -6.2,-14.3 -4.8,-22.4 1.3,-7.8 3.3,-10.1 10.5,-11.7 0.6,-10.2 0.4,-20.5 1.9,-30.4 4.2,-27.7 18.8,-47.2 46.4,-55.5 4.6,-1.5 9.5,-2.4 14.3,-3.5 z"
       id="path5"
       inkscape:connector-curvature="0" /><path
       d="m 389,546 c 0.1,-16.6 -14.7,-25.5 -32.7,-19.3 -3.7,-6.2 -7.4,-12.5 -11.3,-19.1 6.4,-4.9 10.6,-11.1 10.7,-19.3 0.1,-8.2 -3.4,-14.8 -10.8,-19.5 3.9,-6.6 7.7,-13 11.4,-19.3 19.6,7.4 32.4,-3.4 34.1,-19.1 7.2,0 14.5,0 21.7,0 2.9,20.1 18.6,26.2 33.4,20 3.8,6.2 7.6,12.4 11.5,18.6 0,0.3 0,0.7 0,1 -6.7,3.7 -9.7,9.8 -10.6,17 -1.1,8.5 3.6,17.2 10.6,20 0,0.3 0,0.7 0,1 -3.9,6.3 -7.8,12.6 -11.6,18.8 -18.4,-6.5 -32.7,1.9 -33.4,19.2 -7.7,0 -15.3,0 -23,0 z m -11.2,-56.9 c 0,12.8 10.3,23.2 23,23.3 12.8,0 23.2,-10.3 23.2,-23.1 0,-12.8 -10.3,-23.3 -23.1,-23.3 -12.7,0 -23,10.3 -23.1,23.1 z"
       id="path7"
       inkscape:connector-curvature="0" /></g></svg>