<?xml version="1.0" encoding="utf-8"?>
<!-- Generator: Adobe Illustrator 19.0.0, SVG Export Plug-In . SVG Version: 6.00 Build 0)  -->
<svg version="1.1" id="Layer_1" xmlns="http://www.w3.org/2000/svg" xmlns:xlink="http://www.w3.org/1999/xlink" x="0px" y="0px"
	 viewBox="0 0 612 792" style="enable-background:new 0 0 612 792;" xml:space="preserve">
<g>
	<path d="M563,545c-0.6,1.7-1.2,3.4-1.8,5.1c-4.3,12.8-16,21.7-29.4,21.7c-32.5,0.2-65,0.2-97.5,0c-17.2-0.1-31-14.2-31.2-31.4
		c-0.2-21.7-0.2-43.3,0-65c0.2-17.2,14.1-31,31.3-31.3c10.6-0.2,21.3,0,32.3,0c0-10.7,0-21.1,0-31.8c-47.7,0-95.5,0-143.5,0
		c0,10.5,0,20.8,0,31.8c9.5,0,19,0,28.4,0c22.3,0,35.2,13,35.3,35.5c0,19.7,0,39.3,0,59c0,19.6-13.7,33.3-33.3,33.4c-31,0-62,0-93,0
		c-19.9,0-33.5-13.7-33.5-33.7c0-20.2,0-40.3,0-60.5c0-20,13.6-33.6,33.6-33.6c10,0,19.9,0,30.4,0c0-5.8,0-11,0-16.3
		c0-5.1,0-10.2,0-15.6c-48.1,0-95.7,0-143.8,0c0,10.3,0,20.7,0,31.9c1.9,0,4,0,6.1,0c10.8,0.3,21.8-0.5,32.4,1.1
		c14.5,2.1,24.9,15.4,25.1,30.1c0.2,21.8,0.2,43.7,0,65.5c-0.2,16.9-14.1,30.9-31,31.1c-32.5,0.2-65,0.2-97.5,0
		c-17.2-0.1-31-14.1-31.2-31.4c-0.2-21.7-0.2-43.3,0-65c0.2-17.4,14.2-31.1,31.8-31.4c10.5-0.1,21,0,32.2,0c0-2,0-3.8,0-5.6
		c0-13.5,0-27,0-40.5c0-11.6,6.3-17.9,17.9-17.9c50.5,0,101,0,151.5,0c2,0,3.9,0,6.3,0c0-10.7,0-21.1,0-32.2c-10.3,0-20.6,0-30.8,0
		c-7,0-13.5-1.8-19.2-5.9c-8.8-6.4-13.5-15.1-13.5-26c-0.1-21.3-0.1-42.7,0-64c0.1-17.8,14-31.8,31.7-31.9c32.2-0.1,64.3-0.2,96.5,0
		c17.4,0.1,31.4,14.1,31.5,31.6c0.2,21.5,0.2,43,0,64.5c-0.1,17.7-14.2,31.5-32,31.7c-10.5,0.1-20.9,0-32,0c0,5.7,0,11,0,16.3
		c0,5.1,0,10.2,0,15.9c2.4,0,4.4,0,6.3,0c50.2,0,100.3,0,150.5,0c13.4,0,19.2,5.8,19.2,19.2c0,14.7,0,29.3,0,44.8c2.9,0,5.7,0,8.4,0
		c7.7,0,15.3,0,23,0c15.6,0.1,27.6,9.5,31.7,24.7c0.2,0.8,0.6,1.5,1,2.2C563,495.7,563,520.3,563,545z M259.1,315.7
		c32.2,0,63.9,0,95.7,0c0-21.4,0-42.4,0-63.5c-32.1,0-63.8,0-95.7,0C259.1,273.5,259.1,294.5,259.1,315.7z M178.8,539.9
		c0-21.5,0-42.6,0-63.7c-32,0-63.8,0-95.5,0c0,21.4,0,42.4,0,63.7C115.2,539.9,146.8,539.9,178.8,539.9z M259.1,539.7
		c32.2,0,64,0,95.6,0c0-21.4,0-42.5,0-63.5c-32.1,0-63.8,0-95.6,0C259.1,497.5,259.1,518.5,259.1,539.7z M435.2,539.8
		c32,0,63.7,0,95.7,0c0-21.3,0-42.4,0-63.6c-32,0-63.7,0-95.7,0C435.2,497.4,435.2,518.3,435.2,539.8z"/>
</g>
</svg>
