<?xml version="1.0" encoding="UTF-8" standalone="no"?>
<!-- Generator: Adobe Illustrator 19.0.0, SVG Export Plug-In . SVG Version: 6.00 Build 0)  -->

<svg
   xmlns:dc="http://purl.org/dc/elements/1.1/"
   xmlns:cc="http://creativecommons.org/ns#"
   xmlns:rdf="http://www.w3.org/1999/02/22-rdf-syntax-ns#"
   xmlns:svg="http://www.w3.org/2000/svg"
   xmlns="http://www.w3.org/2000/svg"
   xmlns:sodipodi="http://sodipodi.sourceforge.net/DTD/sodipodi-0.dtd"
   xmlns:inkscape="http://www.inkscape.org/namespaces/inkscape"
   version="1.1"
   id="Layer_1"
   x="0px"
   y="0px"
   viewBox="0 0 612 792"
   style="enable-background:new 0 0 612 792;"
   xml:space="preserve"
   inkscape:version="0.91 r13725"
   sodipodi:docname="technology.svg"><metadata
     id="metadata22"><rdf:RDF><cc:Work
         rdf:about=""><dc:format>image/svg+xml</dc:format><dc:type
           rdf:resource="http://purl.org/dc/dcmitype/StillImage" /></cc:Work></rdf:RDF></metadata><defs
     id="defs20" /><sodipodi:namedview
     pagecolor="#ffffff"
     bordercolor="#666666"
     borderopacity="1"
     objecttolerance="10"
     gridtolerance="10"
     guidetolerance="10"
     inkscape:pageopacity="0"
     inkscape:pageshadow="2"
     inkscape:window-width="1680"
     inkscape:window-height="1026"
     id="namedview18"
     showgrid="false"
     inkscape:zoom="0.2979798"
     inkscape:cx="306"
     inkscape:cy="396"
     inkscape:window-x="1680"
     inkscape:window-y="24"
     inkscape:window-maximized="1"
     inkscape:current-layer="Layer_1" /><style
     type="text/css"
     id="style3">
	.st0{fill:#FFFFFF;}
</style><g
     transform="matrix(2.8122987,0,0,2.5785386,-616.62234,-731.59304)"
     id="XMLID_2_"
     clip-path="none"><path
       inkscape:connector-curvature="0"
       id="XMLID_17_"
       class="st0"
       d="m 383.6,444.4 c 0.4,0 0.7,0.1 1.1,0.1 9.4,0 18.8,0 28.1,0 1.5,0 1.4,-0.8 1.4,-1.8 0,-9 0,-18.1 0,-27.1 0,-1.5 -0.5,-1.9 -1.9,-1.9 -9,0.1 -18.1,0 -27.1,0 -0.5,0 -1.1,0.1 -1.6,0.1 0,10.4 0,20.5 0,30.6 z m -19,-36 c 8.5,0 16.8,0 25.1,0 0.1,-0.3 0.1,-0.5 0.1,-0.6 0,-7.7 0,-15.5 0,-23.2 0,-1.2 -0.6,-1.4 -1.5,-1.4 -7.5,0 -14.9,0 -22.4,0 -0.4,0 -0.9,0.1 -1.4,0.1 0.1,8.5 0.1,16.7 0.1,25.1 z m 13.1,-32 c 2.5,0 4.9,0 7.4,0 1.1,0 1.5,-0.3 1.5,-1.4 0,-5 0,-10 0,-15 0,-1.1 -0.4,-1.5 -1.5,-1.4 -5,0 -10,0 -15,0 -1,0 -1.4,0.3 -1.4,1.4 0,5 0,10.1 0,15.1 0,1 0.4,1.4 1.4,1.4 2.6,-0.1 5.1,-0.1 7.6,-0.1 z m -41,32.1 c 5.9,0 11.6,0 17.5,0 0,-5.9 0,-11.7 0,-17.5 -5.9,0 -11.6,0 -17.5,0 0,5.8 0,11.5 0,17.5 z m 7.1,4.8 c 0,5.8 0,11.6 0,17.4 5.9,0 11.6,0 17.4,0 0,-5.9 0,-11.6 0,-17.4 -5.8,0 -11.5,0 -17.4,0 z m 33.8,20 c -0.3,-0.1 -0.5,-0.2 -0.6,-0.2 -5.3,0 -10.6,0 -16,0 -1.2,0 -1.2,0.7 -1.1,1.6 0,4.9 0,9.9 0,14.8 0,0.4 0.1,0.8 0.2,1.2 5.9,0 11.7,0 17.6,0 -0.1,-5.9 -0.1,-11.6 -0.1,-17.4 z m -31,5 c -0.2,-0.1 -0.3,-0.2 -0.4,-0.2 -4.5,0 -9,0 -13.5,-0.1 -1.1,0 -1.1,0.7 -1.1,1.5 0,3.3 0,6.6 0,9.9 0,1.2 0,2.3 0,3.5 5.1,0 10,0 14.9,0 0.1,-4.9 0.1,-9.8 0.1,-14.6 z m -14.8,-18.9 c -5,0 -9.9,0 -14.7,0 0,5 0,9.8 0,14.7 5,0 9.9,0 14.7,0 0,-5 0,-9.8 0,-14.7 z M 307.7,440 c 0,5 0,9.9 0,14.7 5,0 9.8,0 14.7,0 0,-5 0,-9.8 0,-14.7 -4.9,0 -9.7,0 -14.7,0 z"
       style="fill:#ffffff" /><path
       inkscape:connector-curvature="0"
       id="XMLID_13_"
       d="m 222.3,508.7 c 1.6,-1.8 3.3,-3.6 4.9,-5.5 4.1,-4.9 8.1,-9.7 12.1,-14.7 0.6,-0.7 0.9,-1.9 1,-2.9 0.1,-24.8 0,-49.7 0,-74.5 0,-5.4 0,-10.9 0,-16.3 0,-5.2 2.8,-7.9 8,-7.9 26.1,0 52.2,0 78.4,0 0.4,0 0.9,0 1.5,0.1 0,2.1 0,4.1 0,6.3 -0.8,0 -1.5,0 -2.2,0 -22.7,0 -45.4,0 -68.1,0 -5.2,0 -7.5,2.3 -7.5,7.5 0,24.3 0,48.5 0,72.8 0,4.9 2.4,7.4 7.3,7.4 41.1,0 82.2,0 123.4,0 4.8,0 7.3,-2.5 7.3,-7.3 0,-6.3 0,-12.7 0,-19 0,-0.6 0,-1.2 0,-1.9 3.4,0 6.6,0 10,0 0,0.7 0,1.4 0,2.1 0,10.3 0,20.6 0,30.8 0,1.2 0.3,2.1 1.1,3 5.5,6.5 10.9,13 16.2,19.5 0.4,0.5 0.6,1.2 0.5,1.8 -0.3,4.8 -4.2,8.9 -9,9.5 -1.1,0.1 -2.1,0.2 -3.2,0.2 -56.3,0 -112.7,0 -169,0.1 -6.5,0 -10.9,-2.8 -12.5,-8.5 0,-0.1 -0.1,-0.2 -0.2,-0.3 0,-0.8 0,-1.6 0,-2.3 z m 126.5,0.2 c -1.8,-2.2 -3.4,-4.2 -5,-6 -0.3,-0.3 -0.9,-0.4 -1.4,-0.4 -15.4,0 -30.8,0 -46.2,0 -0.5,0 -1.1,0.1 -1.4,0.4 -1.6,1.9 -3.2,3.8 -5,6 19.8,0 39.2,0 59,0 z m -29.5,3.7 c -4.3,0 -8.6,0 -13,0 -0.5,0 -1.1,-0.2 -1.5,0.1 -0.6,0.5 -1.5,1.1 -1.5,1.8 -0.1,0.5 0.9,1.2 1.5,1.6 0.5,0.3 1.2,0.2 1.8,0.2 8.5,0 17,0 25.6,0 0.7,0 1.4,0.1 2,-0.2 0.5,-0.3 1.1,-1 1.1,-1.6 0,-0.6 -0.6,-1.3 -1.1,-1.6 -0.4,-0.3 -1.2,-0.2 -1.8,-0.2 -4.3,-0.1 -8.7,-0.1 -13.1,-0.1 z" /><path
       inkscape:connector-curvature="0"
       id="XMLID_12_"
       d="m 433.3,394.1 c -12.6,0 -25.2,0 -38,0 0,-0.7 -0.1,-1.3 -0.1,-1.8 0,-11.4 0,-22.9 0,-34.3 0,-1.6 0.5,-1.9 2,-1.9 12.1,0 24.1,0 36.2,0 -0.1,12.6 -0.1,25.3 -0.1,38 z" /><path
       inkscape:connector-curvature="0"
       id="XMLID_11_"
       d="m 383.6,444.4 c 0,-10.2 0,-20.2 0,-30.5 0.5,0 1.1,-0.1 1.6,-0.1 9,0 18.1,0 27.1,0 1.4,0 1.9,0.3 1.9,1.9 -0.1,9 0,18.1 0,27.1 0,1 0,1.8 -1.4,1.8 -9.4,-0.1 -18.8,0 -28.1,0 -0.4,0 -0.7,-0.1 -1.1,-0.2 z" /><path
       inkscape:connector-curvature="0"
       id="XMLID_10_"
       d="m 364.6,408.4 c 0,-8.4 0,-16.7 0,-25 0.5,-0.1 0.9,-0.1 1.4,-0.1 7.5,0 14.9,0 22.4,0 1,0 1.6,0.1 1.5,1.4 0,7.7 0,15.5 0,23.2 0,0.2 -0.1,0.3 -0.1,0.6 -8.4,-0.1 -16.7,-0.1 -25.2,-0.1 z" /><path
       inkscape:connector-curvature="0"
       id="XMLID_9_"
       d="m 377.7,376.4 c -2.5,0 -5,0 -7.6,0 -1,0 -1.4,-0.3 -1.4,-1.4 0,-5 0,-10.1 0,-15.1 0,-1 0.4,-1.4 1.4,-1.4 5,0 10,0 15,0 1.1,0 1.5,0.3 1.5,1.4 0,5 0,10 0,15 0,1.1 -0.4,1.5 -1.5,1.4 -2.4,0.1 -4.9,0.1 -7.4,0.1 z" /><path
       inkscape:connector-curvature="0"
       id="XMLID_8_"
       d="m 336.7,408.5 c 0,-5.9 0,-11.7 0,-17.5 5.8,0 11.6,0 17.5,0 0,5.9 0,11.6 0,17.5 -5.9,0 -11.6,0 -17.5,0 z" /><path
       inkscape:connector-curvature="0"
       id="XMLID_7_"
       d="m 343.8,413.3 c 5.9,0 11.6,0 17.4,0 0,5.8 0,11.5 0,17.4 -5.8,0 -11.6,0 -17.4,0 0,-5.8 0,-11.6 0,-17.4 z" /><path
       inkscape:connector-curvature="0"
       id="XMLID_6_"
       d="m 377.6,433.3 c 0,5.8 0,11.5 0,17.4 -5.8,0 -11.6,0 -17.6,0 0,-0.4 -0.2,-0.8 -0.2,-1.2 0,-4.9 0,-9.9 0,-14.8 0,-0.8 -0.1,-1.6 1.1,-1.6 5.3,0 10.6,0 16,0 0.3,0 0.4,0.1 0.7,0.2 z" /><path
       inkscape:connector-curvature="0"
       id="XMLID_5_"
       d="m 346.6,438.3 c 0,4.8 0,9.7 0,14.6 -4.9,0 -9.8,0 -14.9,0 0,-1.2 0,-2.3 0,-3.5 0,-3.3 0,-6.6 0,-9.9 0,-0.8 0,-1.5 1.1,-1.5 4.5,0 9,0 13.5,0.1 0,0 0.1,0.1 0.3,0.2 z" /><path
       inkscape:connector-curvature="0"
       id="XMLID_4_"
       d="m 331.8,419.4 c 0,4.9 0,9.7 0,14.7 -4.9,0 -9.7,0 -14.7,0 0,-4.8 0,-9.7 0,-14.7 4.8,0 9.7,0 14.7,0 z" /><path
       inkscape:connector-curvature="0"
       id="XMLID_3_"
       d="m 307.7,440 c 5,0 9.8,0 14.7,0 0,4.9 0,9.8 0,14.7 -4.9,0 -9.7,0 -14.7,0 0,-4.9 0,-9.7 0,-14.7 z" /></g></svg>