<?xml version="1.0" encoding="utf-8"?>
<!-- Generator: Adobe Illustrator 19.0.0, SVG Export Plug-In . SVG Version: 6.00 Build 0)  -->
<svg version="1.1" id="Layer_1" xmlns="http://www.w3.org/2000/svg" xmlns:xlink="http://www.w3.org/1999/xlink" x="0px" y="0px"
	 viewBox="-286.9 343.8 107 107" style="enable-background:new -286.9 343.8 107 107;" xml:space="preserve">
<style type="text/css">
	.st0{fill:#FFFFFF;stroke:#000000;stroke-width:3;stroke-miterlimit:10;}
</style>
<circle class="st0" cx="-233.4" cy="397.3" r="52"/>
<g>
	<g>
		<path d="M-238.6,381.9c0.6,0,1.1-0.4,1.3-1c0.3-1.2-1-2.2-2-1.5c-0.5,0.3-0.7,0.9-0.6,1.5C-239.7,381.5-239.2,381.9-238.6,381.9z"
			/>
		<path d="M-227.6,387.9c-0.4,0.4-0.6,1-0.4,1.5s0.7,0.8,1.3,0.8c0.7,0,1.3-0.5,1.3-1.2C-225.2,387.8-226.7,387.1-227.6,387.9z"/>
		<path d="M-221.3,390.2c0.6,0,1.2-0.4,1.3-1c0.3-1.2-1.1-2.1-2.1-1.4c-0.5,0.3-0.7,1-0.5,1.5S-221.9,390.2-221.3,390.2z"/>
		<path d="M-199.9,372.4h-35.2c-3-5.3-8.8-8.9-15.3-8.9c-9.7,0-17.7,7.9-17.7,17.7c0,7.3,4.5,13.6,10.8,16.3
			c-6.9,2.7-11.7,9.5-11.7,17.3v14.8c0,0.7,0.6,1.4,1.4,1.4h34.4c0.7,0,1.4-0.6,1.4-1.4V416h28.3c4.1,0,7.4-3.3,7.4-7.4v-32.3
			C-196.1,374.1-197.8,372.4-199.9,372.4z M-224.6,375.1c0,0.1,0,0.3,0.1,0.4c0.2,0.5,0.7,0.9,1.3,0.9c0.6,0,1.1-0.4,1.3-1
			c0-0.1,0-0.2,0-0.4h22c0.6,0,1.1,0.5,1.1,1.1V406H-234c-0.4-0.7-0.8-1.3-1.2-2h33.1c0.7,0,1.4-0.6,1.4-1.4v-24.3
			c0-0.7-0.6-1.4-1.4-1.4h-31.1c-0.2-0.7-0.4-1.3-0.6-2h9.2V375.1z M-213.9,413.2h-18c-0.1-1.5-0.4-3-0.9-4.4h24.5
			C-208.9,411.3-211.2,413.2-213.9,413.2z M-232.8,379.8h29.3v21.6H-215c-0.4-1.3-1.1-2.6-2.1-3.6c-0.5-0.5-1-0.9-1.5-1.2
			c2.2-1.5,3.6-4,3.6-6.8c0-4.5-3.7-8.2-8.2-8.2s-8.2,3.7-8.2,8.2c0,2.8,1.4,5.3,3.6,6.8c-1.7,1.1-3,2.8-3.6,4.8h-6.1
			c-1.7-1.7-3.8-3-6.1-3.9c6.3-2.7,10.8-9,10.8-16.3C-232.8,380.7-232.8,380.3-232.8,379.8z M-223.2,398L-223.2,398L-223.2,398
			c1.6,0,3.1,0.6,4.2,1.7c0.5,0.5,0.9,1,1.2,1.7h-10.7C-227.6,399.4-225.5,398-223.2,398z M-228.7,389.8c0-3,2.5-5.5,5.5-5.5
			s5.5,2.5,5.5,5.5s-2.5,5.5-5.5,5.5l0,0l0,0C-226.2,395.3-228.7,392.8-228.7,389.8z M-265.4,381.2c0-8.2,6.7-15,15-15
			c8.2,0,15,6.7,15,15c0,8.2-6.7,15-15,15C-258.7,396.1-265.4,389.4-265.4,381.2z M-266.3,414.8c0-8.8,7.1-15.9,15.9-15.9
			s15.9,7.1,15.9,15.9v5.5h-6v-6.4c0-0.7-0.6-1.4-1.4-1.4c-0.7,0-1.4,0.6-1.4,1.4v14.4h-23.1v-13.5H-266.3z M-240.5,428.2v-5.3h6
			v5.3H-240.5z M-203.5,413.2h-4.3c1.1-1.2,1.9-2.7,2.2-4.4h6.8C-198.9,411.3-201,413.2-203.5,413.2z"/>
	</g>
</g>
</svg>
