<?xml version="1.0" encoding="utf-8"?>
<!-- Generator: Adobe Illustrator 19.0.0, SVG Export Plug-In . SVG Version: 6.00 Build 0)  -->
<svg version="1.1" id="Layer_1" xmlns="http://www.w3.org/2000/svg" xmlns:xlink="http://www.w3.org/1999/xlink" x="0px" y="0px"
	 viewBox="-286.9 343.8 107 107" style="enable-background:new -286.9 343.8 107 107;" xml:space="preserve">
<style type="text/css">
	.st0{fill:#FFFFFF;stroke:#000000;stroke-width:3;stroke-miterlimit:10;}
	.st1{display:none;}
	.st2{display:inline;}
	.st3{display:inline;fill:none;}
	.st4{display:inline;fill:none;stroke:#000000;stroke-width:2;stroke-miterlimit:10;}
	.st5{display:inline;fill:none;stroke:#000000;stroke-width:3;stroke-miterlimit:10;}
	.st6{fill:none;stroke:#8E89C2;stroke-width:2.9031;stroke-miterlimit:10;}
	.st7{fill:#8E89C2;}
	.st8{display:none;fill:none;stroke:#000000;stroke-width:3;stroke-miterlimit:10;}
</style>
<circle class="st0" cx="-233.4" cy="397.3" r="52"/>
<g id="Conference_call" class="st1">
	<g class="st2">
		<path d="M-238.6,381.9c0.6,0,1.1-0.4,1.3-1c0.3-1.2-1-2.2-2-1.5c-0.5,0.3-0.7,0.9-0.6,1.5C-239.7,381.5-239.2,381.9-238.6,381.9z"
			/>
		<path d="M-227.6,387.9c-0.4,0.4-0.6,1-0.4,1.5s0.7,0.8,1.3,0.8c0.7,0,1.3-0.5,1.3-1.2C-225.2,387.8-226.7,387.1-227.6,387.9z"/>
		<path d="M-221.3,390.2c0.6,0,1.2-0.4,1.3-1c0.3-1.2-1.1-2.1-2.1-1.4c-0.5,0.3-0.7,1-0.5,1.5S-221.9,390.2-221.3,390.2z"/>
		<path d="M-199.9,372.4h-35.2c-3-5.3-8.8-8.9-15.3-8.9c-9.7,0-17.7,7.9-17.7,17.7c0,7.3,4.5,13.6,10.8,16.3
			c-6.9,2.7-11.7,9.5-11.7,17.3v14.8c0,0.7,0.6,1.4,1.4,1.4h34.4c0.7,0,1.4-0.6,1.4-1.4V416h28.3c4.1,0,7.4-3.3,7.4-7.4v-32.3
			C-196.1,374.1-197.8,372.4-199.9,372.4z M-224.6,375.1c0,0.1,0,0.3,0.1,0.4c0.2,0.5,0.7,0.9,1.3,0.9c0.6,0,1.1-0.4,1.3-1
			c0-0.1,0-0.2,0-0.4h22c0.6,0,1.1,0.5,1.1,1.1V406H-234c-0.4-0.7-0.8-1.3-1.2-2h33.1c0.7,0,1.4-0.6,1.4-1.4v-24.3
			c0-0.7-0.6-1.4-1.4-1.4h-31.1c-0.2-0.7-0.4-1.3-0.6-2h9.2V375.1z M-213.9,413.2h-18c-0.1-1.5-0.4-3-0.9-4.4h24.5
			C-208.9,411.3-211.2,413.2-213.9,413.2z M-232.8,379.8h29.3v21.6H-215c-0.4-1.3-1.1-2.6-2.1-3.6c-0.5-0.5-1-0.9-1.5-1.2
			c2.2-1.5,3.6-4,3.6-6.8c0-4.5-3.7-8.2-8.2-8.2s-8.2,3.7-8.2,8.2c0,2.8,1.4,5.3,3.6,6.8c-1.7,1.1-3,2.8-3.6,4.8h-6.1
			c-1.7-1.7-3.8-3-6.1-3.9c6.3-2.7,10.8-9,10.8-16.3C-232.8,380.7-232.8,380.3-232.8,379.8z M-223.2,398L-223.2,398L-223.2,398
			c1.6,0,3.1,0.6,4.2,1.7c0.5,0.5,0.9,1,1.2,1.7h-10.7C-227.6,399.4-225.5,398-223.2,398z M-228.7,389.8c0-3,2.5-5.5,5.5-5.5
			s5.5,2.5,5.5,5.5s-2.5,5.5-5.5,5.5l0,0l0,0C-226.2,395.3-228.7,392.8-228.7,389.8z M-265.4,381.2c0-8.2,6.7-15,15-15
			c8.2,0,15,6.7,15,15c0,8.2-6.7,15-15,15C-258.7,396.1-265.4,389.4-265.4,381.2z M-266.3,414.8c0-8.8,7.1-15.9,15.9-15.9
			s15.9,7.1,15.9,15.9v5.5h-6v-6.4c0-0.7-0.6-1.4-1.4-1.4c-0.7,0-1.4,0.6-1.4,1.4v14.4h-23.1v-13.5H-266.3z M-240.5,428.2v-5.3h6
			v5.3H-240.5z M-203.5,413.2h-4.3c1.1-1.2,1.9-2.7,2.2-4.4h6.8C-198.9,411.3-201,413.2-203.5,413.2z"/>
	</g>
</g>
<g id="Email" class="st1">
	<path class="st2" d="M-198.2,372.8h-67.8c-0.8,0-1.4,0.6-1.4,1.4v42.5c0,0.8,0.6,1.4,1.4,1.4h44.3l6.1,11.4
		c0.2,0.5,0.7,0.7,1.3,0.7c0.5,0,1-0.2,1.3-0.7l6.1-11.4h8.7c0.8,0,1.4-0.6,1.4-1.4v-42.5C-196.8,373.4-197.5,372.8-198.2,372.8z
		 M-217.2,395.4l17.5-17.8v35.7L-217.2,395.4z M-246.9,395.4l-17.7,17.9v-35.7L-246.9,395.4z M-262.6,375.6h61.1l-30.6,30.9
		L-262.6,375.6z M-207.6,415.3c-0.5,0-1,0.2-1.3,0.7l-5.3,9.9l-5.3-9.8c-0.2-0.5-0.7-0.7-1.3-0.7h-41.8l17.7-17.9l11.9,12
		c0.2,0.2,0.6,0.5,1,0.5c0.3,0,0.7-0.1,1-0.5l11.9-12l17.5,17.8H-207.6L-207.6,415.3z"/>
</g>
<g id="In_person_discussion" class="st1">
	<path class="st2" d="M-246.1,408.4c3.3-2.2,5.4-6,5.4-10.2c0-6.8-5.5-12.4-12.4-12.4c-6.8,0-12.4,5.5-12.4,12.4
		c0,4.3,2.1,8,5.4,10.2c-3.4,1-6,4.2-6,8v14.7c0,0.6,0.5,1.3,1.2,1.3h23.5c0.6,0,1.2-0.5,1.2-1.2v-14.8
		C-240,412.6-242.6,409.4-246.1,408.4z M-250.1,412.2l-1.5-1.7h3L-250.1,412.2z M-254.8,410.5l2.9,3.3l-2.8,2l-1.3-5.3H-254.8z
		 M-245.9,411c0.1,0.1,0.3,0.1,0.4,0.2l-0.4,4.4l-2.4-1.8L-245.9,411z M-262.8,398.2c0-5.4,4.5-9.9,9.9-9.9c5.4,0,9.9,4.5,9.9,9.9
		s-4.5,9.9-9.9,9.9C-258.4,408.1-262.8,403.7-262.8,398.2z M-263.4,416.4c0-3,2.1-5.4,5-5.9l1.9,7.7c0.1,0.4,0.4,0.7,0.7,0.9
		c0.1,0,0.3,0.1,0.4,0.1c0.2,0,0.5-0.1,0.7-0.2l3.3-2.4v13.5h-6.2v-12.1c0-0.6-0.5-1.2-1.2-1.2s-1.2,0.5-1.2,1.2v12h-3.6V416.4z
		 M-242.3,430h-6.5v-13.5l3.3,2.4c0.2,0.1,0.4,0.2,0.7,0.2c0.2,0,0.3,0,0.5-0.1c0.4-0.2,0.6-0.5,0.7-1l0.4-4.6
		c0.5,0.9,0.9,1.9,0.9,3.1V430H-242.3z"/>
	<path class="st2" d="M-246.2,419.8c-0.2-0.4-0.6-0.7-1.2-0.7c-0.5,0-1,0.4-1.2,0.9c-0.1,0.5,0.1,1.1,0.5,1.4c0.4,0.3,1,0.3,1.4,0
		C-246.2,421-246,420.4-246.2,419.8C-246.3,419.8-246.2,420-246.2,419.8z"/>
	<path class="st2" d="M-253.3,396c-0.2-0.4-0.6-0.7-1.2-0.7c-0.5,0-1,0.3-1.1,0.7c-0.2,0.4-0.1,1.1,0.3,1.4c0.4,0.3,1,0.4,1.4,0.1
		C-253.3,397.2-253.1,396.5-253.3,396C-253.4,395.9-253.3,396-253.3,396z"/>
	<path class="st2" d="M-247.7,396.8c0.2,0.4,0.6,0.7,1.2,0.7c0.5,0,1.1-0.4,1.2-1c0.1-0.4-0.1-1-0.4-1.3c-0.4-0.3-1.1-0.3-1.5,0
		C-247.7,395.8-247.9,396.3-247.7,396.8C-247.7,396.9-247.7,396.8-247.7,396.8z"/>
	<path class="st2" d="M-216.4,385.1c0.2,0.1,0.4,0.2,0.6,0.2c0.2,0,0.4,0,0.5-0.1c0.4-0.2,0.6-0.6,0.6-1.1v-2.9h1.3
		c2,0,3.7-1.7,3.7-3.7v-12.8c0-2-1.7-3.7-3.7-3.7h-12.6v-0.5c0-2-1.7-3.7-3.8-3.7h-22.2c-2,0-3.7,1.7-3.7,3.7v12.7
		c0,2.1,1.7,3.7,3.7,3.7h1.3v2.8c0,0.4,0.2,0.9,0.6,1.1c0.2,0.1,0.4,0.1,0.5,0.1c0.2,0,0.4-0.1,0.6-0.2l6.1-3.8h3.4v0.5
		c0,2,1.7,3.7,3.7,3.7h13.1L-216.4,385.1z M-243.1,374.6c-0.2,0-0.4,0.1-0.6,0.2l-4.5,2.9v-1.8c0-0.6-0.5-1.2-1.2-1.2h-2.4
		c-0.7,0-1.4-0.6-1.4-1.4v-12.8c0-0.7,0.6-1.4,1.4-1.4h22.2c0.7,0,1.4,0.6,1.4,1.4v0.5h-7.2c-1.6,0-3.1,1.1-3.5,2.6h-9.3
		c-0.6,0-1.2,0.5-1.2,1.2c0,0.6,0.5,1.2,1.2,1.2h9.1v2h-9.1c-0.6,0-1.2,0.5-1.2,1.2s0.5,1.2,1.2,1.2h9.1v4.2h-3.8V374.6z
		 M-236.9,377.5v-12.7c0-0.7,0.6-1.4,1.4-1.4h22.3c0.7,0,1.4,0.6,1.4,1.4v12.7c0,0.7-0.6,1.4-1.4,1.4h-2.4c-0.6,0-1.2,0.5-1.2,1.2
		v1.8l-4.5-2.9c-0.2-0.1-0.4-0.2-0.6-0.2h-13.5C-236.3,378.8-236.9,378.2-236.9,377.5z"/>
	<path class="st2" d="M-232,370.3h15.2c0.6,0,1.2-0.5,1.2-1.2c0-0.6-0.5-1.2-1.2-1.2H-232c-0.6,0-1.2,0.5-1.2,1.2
		C-233.3,369.7-232.7,370.3-232,370.3z"/>
	<path class="st2" d="M-215.6,373.5c0-0.6-0.5-1.2-1.2-1.2H-232c-0.6,0-1.2,0.5-1.2,1.2c0,0.6,0.5,1.2,1.2,1.2h15.2
		C-216.1,374.7-215.6,374.2-215.6,373.5z"/>
	<path class="st2" d="M-206.5,408.4c3.3-2.2,5.4-6,5.4-10.2c0-6.8-5.5-12.4-12.4-12.4c-6.8,0-12.4,5.5-12.4,12.4
		c0,4.3,2.1,8,5.4,10.2c-3.5,1-6.1,4.3-6.1,8.1v14.7c0,0.6,0.5,1.2,1.2,1.2h23.5c0.6,0,1.2-0.5,1.2-1.2v-14.8
		C-200.3,412.6-202.9,409.4-206.5,408.4z M-208.9,410.5c-1,1.5-2.6,2.3-4.4,2.3c-1.8,0-3.4-1-4.4-2.3H-208.9z M-223.2,398.2
		c0-5.4,4.5-9.9,9.9-9.9s9.9,4.5,9.9,9.9s-4.5,9.9-9.9,9.9S-223.2,403.7-223.2,398.2z M-223.8,416.4c0-2.4,1.5-4.6,3.7-5.5
		c1.2,2.7,3.8,4.4,6.8,4.4s5.6-1.7,6.8-4.4c2.1,0.9,3.7,3,3.7,5.5v4.3h-4.3v-2.9c0-0.6-0.5-1.2-1.2-1.2c-0.6,0-1.2,0.5-1.2,1.2v12
		h-14.5V416.4L-223.8,416.4z M-207,430v-6.7h4.3v6.7H-207z"/>
	<path class="st2" d="M-212.8,396.8c0.2,0.5,0.7,0.9,1.3,0.7c0.5-0.1,0.9-0.4,1-0.9c0.1-0.5-0.1-1.1-0.5-1.3
		c-0.4-0.4-1.1-0.3-1.5,0.1C-213,395.9-213.1,396.4-212.8,396.8C-212.8,396.9-212.8,396.8-212.8,396.8z"/>
	<path class="st2" d="M-218.5,396.2c0-0.1-0.1-0.3-0.2-0.4c-0.6-0.9-2-0.5-2.2,0.5c-0.1,1,1,1.7,1.8,1.3
		C-218.6,397.2-218.4,396.6-218.5,396.2C-218.5,396.1-218.5,396.2-218.5,396.2z"/>
	<path class="st2" d="M-213.1,400.6c-0.4-0.4-1-0.4-1.4,0c-0.3,0.3-0.7,0.5-1.2,0.5c-0.4,0-0.9-0.2-1.2-0.5c-0.4-0.4-1-0.4-1.4,0
		c-0.4,0.4-0.4,1,0,1.4c0.7,0.7,1.6,1.1,2.6,1.1s1.9-0.3,2.6-1.1C-212.6,401.5-212.6,400.9-213.1,400.6z"/>
</g>
<g id="Meeting" class="st1">
	<path class="st2" d="M-227,415.2c2.7-1.6,4.6-4.6,4.6-8c0-5.1-4.1-9.2-9.2-9.2c-5.1,0-9.2,4.1-9.2,9.2c0,3.4,1.8,6.3,4.6,8
		c-3,1.7-5,4.8-5,8.5v7.3c0,0.7,0.6,1.2,1.2,1.2h16.9c0.7,0,1.2-0.6,1.2-1.2v-7.3C-222,420.1-224.1,416.9-227,415.2z M-238.5,407.3
		c0-3.7,3-6.7,6.7-6.7c3.7,0,6.7,3,6.7,6.7s-3,6.7-6.7,6.7C-235.4,414-238.5,411-238.5,407.3z M-224.5,429.7h-14.4v-6
		c0-4,3.2-7.2,7.2-7.2s7.2,3.2,7.2,7.2V429.7L-224.5,429.7z"/>
	<path class="st2" d="M-227,415.2c2.7-1.6,4.6-4.6,4.6-8c0-5.1-4.1-9.2-9.2-9.2c-5.1,0-9.2,4.1-9.2,9.2c0,3.4,1.8,6.3,4.6,8
		c-3,1.7-5,4.8-5,8.5v7.3c0,0.7,0.6,1.2,1.2,1.2h16.9c0.7,0,1.2-0.6,1.2-1.2v-7.3C-222,420.1-224.1,416.9-227,415.2z M-238.5,407.3
		c0-3.7,3-6.7,6.7-6.7c3.7,0,6.7,3,6.7,6.7s-3,6.7-6.7,6.7C-235.4,414-238.5,411-238.5,407.3z M-224.5,429.7h-14.4v-6
		c0-4,3.2-7.2,7.2-7.2s7.2,3.2,7.2,7.2V429.7z"/>
	<g class="st2">
		<path d="M-199.1,363.8h-65.3c-1.9,0-3.5,1.6-3.5,3.5v19.2c0,2,1.6,3.5,3.5,3.5h6.2v4.2c0,0.5,0.2,0.9,0.6,1.1
			c0.4,0.2,0.9,0.2,1.3,0l8.2-5.2h11.3v4.2c0,0.5,0.2,0.9,0.6,1.1c0.4,0.2,0.9,0.2,1.3,0l8.2-5.2h11.2l8.2,5.2
			c0.2,0.1,0.4,0.2,0.7,0.2c0.2,0,0.4-0.1,0.6-0.2c0.4-0.2,0.6-0.6,0.6-1.1v-4.2h6.4c2,0,3.5-1.6,3.5-3.5v-19.3
			C-195.5,365.4-197.1,363.8-199.1,363.8z M-198,386.5c0,0.6-0.5,1.1-1.1,1.1h-7.6c-0.7,0-1.2,0.6-1.2,1.2v3.1l-6.6-4.1
			c-0.2-0.1-0.4-0.2-0.7-0.2h-11.9c-0.2,0-0.5,0.1-0.7,0.2l-6.6,4.2v-3.2c0-0.7-0.6-1.2-1.2-1.2h-12.9c-0.2,0-0.5,0.1-0.7,0.2
			l-6.6,4.2v-3.2c0-0.7-0.6-1.2-1.2-1.2h-7.4c-0.6,0-1.1-0.5-1.1-1.1v-19.2c0.1-0.5,0.6-1,1.1-1h65.3c0.6,0,1.1,0.5,1.1,1.1V386.5
			L-198,386.5z"/>
		<path d="M-227,415.2c2.7-1.6,4.6-4.6,4.6-8c0-5.1-4.1-9.2-9.2-9.2c-5.1,0-9.2,4.1-9.2,9.2c0,3.4,1.8,6.3,4.6,8c-3,1.7-5,4.8-5,8.5
			v7.3c0,0.7,0.6,1.2,1.2,1.2h16.9c0.7,0,1.2-0.6,1.2-1.2v-7.3C-222,420.1-224.1,416.9-227,415.2z M-238.5,407.3
			c0-3.7,3-6.7,6.7-6.7c3.7,0,6.7,3,6.7,6.7s-3,6.7-6.7,6.7C-235.4,414-238.5,411-238.5,407.3z M-224.5,429.7h-14.4v-6
			c0-4,3.2-7.2,7.2-7.2s7.2,3.2,7.2,7.2V429.7L-224.5,429.7z"/>
		<path d="M-204,415.2c2.7-1.6,4.6-4.6,4.6-8c0-5.1-4.1-9.2-9.2-9.2c-5.1,0-9.2,4.1-9.2,9.2c0,3.4,1.8,6.3,4.6,8c-3,1.7-5,4.8-5,8.5
			v7.3c0,0.7,0.6,1.2,1.2,1.2h16.9c0.7,0,1.2-0.6,1.2-1.2v-7.3C-199,420.1-201,416.9-204,415.2z M-215.4,407.3c0-3.7,3-6.7,6.7-6.7
			s6.7,3,6.7,6.7s-3,6.7-6.7,6.7S-215.4,411-215.4,407.3z M-201.5,429.7h-14.4v-6c0-4,3.2-7.2,7.2-7.2s7.2,3.2,7.2,7.2V429.7
			L-201.5,429.7z"/>
		<path d="M-204,415.2c2.7-1.6,4.6-4.6,4.6-8c0-5.1-4.1-9.2-9.2-9.2c-5.1,0-9.2,4.1-9.2,9.2c0,3.4,1.8,6.3,4.6,8c-3,1.7-5,4.8-5,8.5
			v7.3c0,0.7,0.6,1.2,1.2,1.2h16.9c0.7,0,1.2-0.6,1.2-1.2v-7.3C-199,420.1-201,416.9-204,415.2z M-215.4,407.3c0-3.7,3-6.7,6.7-6.7
			s6.7,3,6.7,6.7s-3,6.7-6.7,6.7S-215.4,411-215.4,407.3z M-201.5,429.7h-14.4v-6c0-4,3.2-7.2,7.2-7.2s7.2,3.2,7.2,7.2V429.7z"/>
		<path d="M-204,415.2c2.7-1.6,4.6-4.6,4.6-8c0-5.1-4.1-9.2-9.2-9.2c-5.1,0-9.2,4.1-9.2,9.2c0,3.4,1.8,6.3,4.6,8c-3,1.7-5,4.8-5,8.5
			v7.3c0,0.7,0.6,1.2,1.2,1.2h16.9c0.7,0,1.2-0.6,1.2-1.2v-7.3C-199,420.1-201,416.9-204,415.2z M-215.4,407.3c0-3.7,3-6.7,6.7-6.7
			s6.7,3,6.7,6.7s-3,6.7-6.7,6.7S-215.4,411-215.4,407.3z M-201.5,429.7h-14.4v-6c0-4,3.2-7.2,7.2-7.2s7.2,3.2,7.2,7.2V429.7
			L-201.5,429.7z"/>
		<path d="M-250.1,415.2c2.7-1.6,4.6-4.6,4.6-8c0-5.1-4.1-9.2-9.2-9.2c-5.1,0-9.2,4.1-9.2,9.2c0,3.4,1.8,6.3,4.6,8
			c-3,1.7-5,4.8-5,8.5v7.3c0,0.7,0.6,1.2,1.2,1.2h16.9c0.7,0,1.2-0.6,1.2-1.2v-7.3C-245.1,420.1-247.1,416.9-250.1,415.2z
			 M-261.6,407.3c0-3.7,3-6.7,6.7-6.7c3.7,0,6.7,3,6.7,6.7s-3,6.7-6.7,6.7C-258.6,414-261.6,411-261.6,407.3z M-247.6,429.7H-262v-6
			c0-4,3.2-7.2,7.2-7.2s7.2,3.2,7.2,7.2V429.7L-247.6,429.7z"/>
		<path d="M-250.1,415.2c2.7-1.6,4.6-4.6,4.6-8c0-5.1-4.1-9.2-9.2-9.2c-5.1,0-9.2,4.1-9.2,9.2c0,3.4,1.8,6.3,4.6,8
			c-3,1.7-5,4.8-5,8.5v7.3c0,0.7,0.6,1.2,1.2,1.2h16.9c0.7,0,1.2-0.6,1.2-1.2v-7.3C-245.1,420.1-247.1,416.9-250.1,415.2z
			 M-261.6,407.3c0-3.7,3-6.7,6.7-6.7c3.7,0,6.7,3,6.7,6.7s-3,6.7-6.7,6.7C-258.6,414-261.6,411-261.6,407.3z M-247.6,429.7H-262v-6
			c0-4,3.2-7.2,7.2-7.2s7.2,3.2,7.2,7.2V429.7z"/>
		<path d="M-250.1,415.2c2.7-1.6,4.6-4.6,4.6-8c0-5.1-4.1-9.2-9.2-9.2c-5.1,0-9.2,4.1-9.2,9.2c0,3.4,1.8,6.3,4.6,8
			c-3,1.7-5,4.8-5,8.5v7.3c0,0.7,0.6,1.2,1.2,1.2h16.9c0.7,0,1.2-0.6,1.2-1.2v-7.3C-245.1,420.1-247.1,416.9-250.1,415.2z
			 M-261.6,407.3c0-3.7,3-6.7,6.7-6.7c3.7,0,6.7,3,6.7,6.7s-3,6.7-6.7,6.7C-258.6,414-261.6,411-261.6,407.3z M-247.6,429.7H-262v-6
			c0-4,3.2-7.2,7.2-7.2s7.2,3.2,7.2,7.2V429.7L-247.6,429.7z"/>
		<path d="M-204.5,372.9H-259c-0.7,0-1.2,0.6-1.2,1.2c0,0.7,0.6,1.2,1.2,1.2h54.5c0.7,0,1.2-0.6,1.2-1.2
			C-203.2,373.4-203.8,372.9-204.5,372.9z"/>
		<path d="M-204.5,378.8H-259c-0.7,0-1.2,0.6-1.2,1.2c0,0.7,0.6,1.2,1.2,1.2h54.5c0.7,0,1.2-0.6,1.2-1.2
			C-203.2,379.4-203.8,378.8-204.5,378.8z"/>
	</g>
</g>
<g id="Phone_call" class="st1">
	<path class="st3" d="M-223.4,412.6c-4.4,3.3-11.2,2.8-15.1-1.1l-9.8-9.8c-3.9-3.9-4.4-10.7-1.1-15.1l1.7-2.3l-8.6-8.6l-6.3,5.7
		c-4.4,4-5,10.9-1.3,15.6c0,0.1,0.1,0.1,0.1,0.2c0.1,0.1,2.1,3.4,14.3,15.6c12.2,12.2,15.5,14.2,15.6,14.3c0.1,0,0.1,0.1,0.2,0.1
		c4.6,3.7,11.6,3.2,15.6-1.3l5.7-6.3l-8.6-8.6L-223.4,412.6z"/>
	<path class="st2" d="M-219.8,407.8c-0.5-0.5-1.4-0.6-2-0.1l-3.4,2.5c-3.3,2.4-8.3,2-11.2-0.8l-9.8-9.8c-2.9-2.9-3.3-7.9-0.8-11.2
		l2.5-3.4c0.4-0.6,0.4-1.4-0.1-2l-10.6-10.6c-0.6-0.6-1.5-0.6-2.1-0.1l-7.4,6.6c-5.6,5-6.3,13.8-1.7,19.6c0.5,0.7,3.1,4.5,14.7,16.2
		c11.6,11.6,15.4,14.2,16.1,14.7c2.6,2.1,5.7,3.1,8.9,3.1c4,0,8-1.6,10.8-4.7l6.6-7.4c0.5-0.6,0.5-1.5-0.1-2.1L-219.8,407.8z
		 M-218.1,425.8c-4,4.5-11,5-15.6,1.3c-0.1,0-0.1-0.1-0.2-0.1c-0.1-0.1-3.4-2.1-15.6-14.3c-12.2-12.2-14.2-15.5-14.3-15.6
		c0-0.1-0.1-0.1-0.1-0.2c-3.7-4.6-3.1-11.6,1.3-15.6l6.3-5.7l8.6,8.6l-1.7,2.3c-3.3,4.4-2.8,11.2,1.1,15.1l9.8,9.8
		c3.9,3.9,10.7,4.4,15.1,1.1l2.3-1.7l8.6,8.6L-218.1,425.8z"/>
	<path class="st2" d="M-228.9,370c-0.8,0-1.5,0.7-1.5,1.5c0,0.8,0.7,1.5,1.5,1.5c4.9,0,9.4,1.9,12.9,5.3c3.4,3.4,5.3,8,5.3,12.9
		c0,0.8,0.7,1.5,1.5,1.5c0.8,0,1.5-0.7,1.5-1.5c0-5.7-2.2-11-6.2-15C-217.9,372.2-223.2,370-228.9,370z"/>
	<path class="st2" d="M-207.4,369.7c-6-6-14-9.3-22.5-9.3c-0.8,0-1.5,0.7-1.5,1.5s0.7,1.5,1.5,1.5c7.7,0,14.9,3,20.4,8.4
		c5.4,5.4,8.4,12.7,8.4,20.4c0,0.8,0.7,1.5,1.5,1.5c0.8,0,1.5-0.7,1.5-1.5C-198.1,383.7-201.4,375.7-207.4,369.7z"/>
	<path class="st2" d="M-222.5,384.7c2,2,3.1,4.7,3.1,7.5c0,0.8,0.7,1.5,1.5,1.5s1.5-0.7,1.5-1.5c0-3.6-1.4-7.1-4-9.6s-6-4-9.6-4
		c-0.8,0-1.5,0.7-1.5,1.5c0,0.8,0.7,1.5,1.5,1.5C-227.1,381.6-224.5,382.7-222.5,384.7z"/>
</g>
<g id="Poster" class="st1">
	<rect x="-236.8" y="384.2" class="st4" width="13.8" height="13.7"/>
	<line class="st4" x1="-252.3" y1="413" x2="-221.5" y2="413"/>
	<line class="st4" x1="-252.3" y1="408" x2="-221.5" y2="408"/>
	<line class="st4" x1="-252.3" y1="403" x2="-221.5" y2="403"/>
	<line class="st5" x1="-252.3" y1="379" x2="-221.5" y2="379"/>
	<g class="st2">
		<g>
			<path d="M-200,419.5h-10.5l-0.1-52.6c0-0.7-0.6-1.3-1.3-1.3h-4.3v-4.5c0-0.7-0.6-1.3-1.3-1.3h-8.6c-0.7,0-1.3,0.6-1.3,1.3v4.5
				l-22,0.1v-4.5c0-0.7-0.6-1.3-1.3-1.3h-8.6c-0.7,0-1.3,0.6-1.3,1.3v4.5h-1c-0.7,0-1.3,0.6-1.3,1.3l0.1,53.9l0,0v5.9
				c0,1.9,0.8,3.7,2.1,5.1c1.4,1.4,3.2,2.1,5.1,2.1c0,0,0,0,0.1,0l49.6-0.1c1.9,0,3.7-0.8,5.1-2.1c1.4-1.4,2.1-3.2,2.1-5.1v-5.9
				C-198.7,420.1-199.3,419.5-200,419.5z M-221,366.9v-4.5h2.2v7.4h-2.2V366.9z M-224.9,362.4h1.3v3.3h-1.3V362.4z M-254.2,367v-4.5
				h2.2v7.4h-2.2V367z M-258.1,362.5h1.3v3.3h-1.3V362.5z M-251,420.9v5.9c0,2.5-2,4.6-4.5,4.6h-0.1l0,0c-1.2,0-2.4-0.5-3.3-1.3
				c-0.9-0.9-1.4-2-1.4-3.3v-5.9l0,0v-52.6h3.5v2.8c0,0.7,0.6,1.3,1.3,1.3h4.8c0.7,0,1.3-0.6,1.3-1.3v-2.8l25.8-0.1v2.8
				c0,0.7,0.6,1.3,1.3,1.3h4.8c0.7,0,1.3-0.6,1.3-1.3v-2.8h3l0.1,51.3l-36.6,0.1C-250.4,419.6-251,420.2-251,420.9z M-201.3,426.7
				c0,1.2-0.5,2.4-1.3,3.3c-0.9,0.9-2,1.4-3.3,1.4l0,0l-44.2,0.1c1-1.3,1.7-2.9,1.7-4.6v-4.6l47.1-0.1V426.7z"/>
		</g>
	</g>
	<g class="st2">
		<g>
			<path class="st6" d="M-212.4,365.3H-229h-16.7c-5.9,0-10.7,4.8-10.7,10.7v27.2c0,5.9,4.8,10.8,10.8,10.8h5.6l-1.1,13
				c-0.2,2.2,2.3,3.5,4,2.2l19.5-15.2h5.3c5.9,0,10.8-4.8,10.8-10.8V376C-201.6,370.1-206.5,365.3-212.4,365.3z"/>
		</g>
		<g>
			<g>
				<path class="st7" d="M-224.6,375.2c-1.5,0.4-2.8,0.9-4.1,2c-1.8,1.5-2.9,3.4-3.2,5.6c-3.6-0.8-6.5-2.5-9-5.4
					c-0.5-0.6-1.1-0.8-1.9-0.8l0,0c-0.7,0-1.4,0.3-1.9,0.8c-1.3,1.6-1.9,3.7-1.4,6c0.1,0.6,0.3,1.3,0.6,1.9
					c-0.3,0.4-0.5,0.8-0.6,1.3c-0.3,2.3,0.6,4.5,2.3,6.3c-0.1,0.3-0.1,0.7,0,1c0.3,1.6,1.1,3,2.4,4c-0.8,0.2-1.6,0.3-2.4,0.3
					c-0.2,0-0.5,0-0.7,0c-0.1,0-0.1,0-0.2,0c-1.1,0-2,0.7-2.3,1.7c-0.3,1.1,0.1,2.3,1.1,2.8c0.1,0,0.2,0.1,0.2,0.1
					c0.2,0.1,0.4,0.3,0.7,0.4c3.1,1.7,6.5,2.5,9.9,2.5c1.3,0,2.6-0.1,3.8-0.3c4.2-0.7,7.9-2.7,10.8-5.5c2.9-2.8,4.9-6.6,5.8-10.8
					c0.2-1,0.3-1.9,0.3-2.9c0-0.3,0-0.7,0.1-1c1.1-0.9,2-1.9,2.8-3.1c0.4-0.3,0.6-0.8,0.6-1.3c0-0.8-0.3-1.4-0.8-1.9
					c0.1-0.2,0.1-0.5,0.1-0.8c0-1.3-1.1-2.4-2.4-2.5c0,0,0,0-0.1,0h-0.1c-0.4,0-0.7,0.1-1,0.3c-0.1,0-0.2,0.1-0.3,0.1
					c0,0-0.1,0-0.1,0.1c-0.6,0.2-1.3,0.5-2,0.7c-1.1-0.8-2.4-1.4-4-1.8C-222.9,374.8-224.6,375.2-224.6,375.2z M-222.2,377.5
					c1.5,0.4,2.8,1,3.9,2c0.1,0,0.2,0.1,0.3,0.1c0.1,0,0.1,0,0.2,0c1-0.4,2-0.7,3.1-1.1c0.2-0.1,0.4-0.2,0.7-0.3
					c-0.6,1.5-1.5,2.6-2.7,3.4c0,0,0,0.1,0.1,0.1c1.1-0.3,2.2-0.6,3.3-0.9c-0.8,1.2-1.7,2.1-2.8,3c-0.2,0.2-0.4,0.5-0.4,0.8
					c-0.2,1.3-0.2,2.7-0.4,4c-1.7,7.7-7.2,13.1-14.7,14.4c-1.1,0.2-2.3,0.3-3.4,0.3c-3,0-6-0.8-8.8-2.2c-0.3-0.1-0.6-0.3-0.8-0.5
					c0.3,0,0.6,0,0.9,0c3.7,0,7-1.6,8.2-2.8c-3.2-0.5-5.3-2.1-5.8-4.4c0.8,0,1.7-0.1,2.5-0.1c-3.4-1.6-5.1-3.9-4.8-6.5
					c0.8,0.2,1.7,0.4,2.5,0.6c-2.7-2.9-3.4-6.5-1.6-8.6c3.5,4.1,7.9,6.3,13.3,6.7c0-0.2,0-0.3,0-0.4c-0.3-2.5,0.4-4.6,2.4-6.2
					C-227.1,379-225,377.1-222.2,377.5z"/>
			</g>
		</g>
	</g>
</g>
<path id="Social" class="st8" d="M-202.3,380.8c-1.9,1.4-6.7,1.8-6.7,1.8c5.1-3.9,4.9-6.4,4.9-6.4c-3.3,2.3-6.6,2.6-8.2,2.6
	c-2.2-2.2-5.2-3.5-8.6-3.5c-6.6,0-12,5.3-12,11.8c0,1,0.1,2,0.4,2.9c-14,0.8-25.3-12.3-25.3-12.3c-5.2,8.7,3.2,15.8,3.2,15.8
	c-2.3,0.3-4.8-1.5-4.8-1.5c-0.2,10,9.2,11.9,9.2,11.9c-1.9,0.8-5,0.2-5,0.2c2.6,8.3,10.9,8.2,10.9,8.2c-6.4,6.9-17.8,5-17.8,5
	c10.9,8,25.8,4.9,25.8,4.9c29.5-6.8,27.6-34.4,27.6-34.4C-202.8,382.4-202.3,380.8-202.3,380.8z"/>
<g id="presentation-training-teaching-meeting-discussion_2_">
	<path d="M-263.6,385.7c0,4,3.3,7.3,7.4,7.3c4,0,7.4-3.3,7.4-7.3c0-4-3.3-7.3-7.4-7.3C-260.3,378.4-263.6,381.6-263.6,385.7z
		 M-251.3,385.7c0,2.7-2.2,4.8-4.9,4.8c-2.7,0-4.9-2.1-4.9-4.8s2.2-4.8,4.9-4.8C-253.5,380.8-251.3,383-251.3,385.7z"/>
	<path d="M-262.3,421.5v-18.8c0-0.6-0.3-1-0.8-1.1c-0.5-0.2-1,0-1.4,0.4l-4.9,6c-0.3,0.4-0.4,0.8-0.2,1.2l2.1,5l-2.6,1.4l-3-8.9
		l7.8-8.8h14.2c0.2,0,0.4,0,0.5-0.1l8.7-3.6c0.1-0.1,0.2-0.1,0.3-0.2l7.7-6.6l2,2l-7.6,7.5l-9.7,4.7c-0.4,0.2-0.7,0.7-0.7,1.1v18.8
		H-262.3z M-264.9,414.5l-2.2-5.4l2.3-2.8v17.4h17.2v-20.1l9.1-4.6c0.1-0.1,0.2-0.1,0.3-0.2l8.7-8.6c0.5-0.5,0.5-1.2,0-1.8l-3.7-3.6
		c-0.5-0.5-1.2-0.5-1.7-0.1l-8.5,7.2l-8.2,3.4H-266c-0.4,0-0.7,0.2-0.9,0.4l-8.7,9.9c-0.3,0.3-0.4,0.7-0.3,1.2l3.8,10.9
		c0.1,0.4,0.4,0.6,0.7,0.7c0.4,0.1,0.7,0.1,1,0l4.9-2.4c0.4-0.2,0.7-0.7,0.7-1"/>
	<path d="M-201.2,365.5h-43.3c-0.6,0-1.2,0.6-1.2,1.2v23.1h2.3v-21.9h40.9v23.8c0,2-1.6,3.6-3.5,3.6h-22.9v2.4h22.9
		c3.2,0,5.8-2.7,5.8-6v-25C-200.1,366-200.6,365.5-201.2,365.5z"/>
	<path d="M-212.6,390.2h4.9c0.7,0,1.2-0.6,1.2-1.2v-4.8c0-0.7-0.6-1.2-1.2-1.2h-4.9v-3.6h4.9c0.7,0,1.2-0.6,1.2-1.2v-4.9
		c0-0.7-0.6-1.2-1.2-1.2h-12.3c-0.7,0-1.2,0.6-1.2,1.2v1.2h-3.7v-1.2c0-0.7-0.6-1.2-1.2-1.2h-12.3c-0.7,0-1.2,0.6-1.2,1.2v4.8
		c0,0.7,0.6,1.2,1.2,1.2h12.3c0.7,0,1.2-0.6,1.2-1.2v-1.2h3.7v1.2c0,0.7,0.6,1.2,1.2,1.2h4.9v3.6h-4.9c-0.7,0-1.2,0.6-1.2,1.2v4.8
		c0,0.7,0.6,1.2,1.2,1.2h4.9 M-227.4,376.8h-9.9v-2.4h9.9V376.8z M-209,387.7h-9.9v-2.4h9.9V387.7z M-218.8,374.4h9.9v2.4h-9.9
		V374.4z"/>
</g>
<g id="presentation-training-teaching-meeting-discussion_1_">
	<path d="M-200.2,412c0-4.3-3.5-7.9-7.9-7.9c-2.7,0-5.1,1.4-6.5,3.5c-1.4-2.1-3.8-3.5-6.5-3.5s-5.1,1.4-6.5,3.5
		c-1.4-2.1-3.8-3.5-6.5-3.5c-4.3,0-7.9,3.5-7.9,7.9c0,2.7,1.4,5.1,3.5,6.5c-2.1,1.4-3.5,3.8-3.5,6.5v5.2h2.6V425
		c0-2.9,2.3-5.2,5.2-5.2c2.9,0,5.2,2.3,5.2,5.2v5.2h2.6V425c0-2.9,2.3-5.2,5.2-5.2s5.2,2.3,5.2,5.2v5.2h2.6V425
		c0-2.9,2.3-5.2,5.2-5.2s5.2,2.3,5.2,5.2v5.2h2.6V425c0-2.7-1.4-5.1-3.5-6.5C-201.6,417.2-200.2,414.7-200.2,412z M-221.2,406.8
		c2.9,0,5.2,2.3,5.2,5.2s-2.3,5.2-5.2,5.2s-5.2-2.4-5.2-5.2C-226.4,409.1-224.1,406.8-221.2,406.8z M-239.5,412
		c0-2.9,2.3-5.2,5.2-5.2c2.9,0,5.2,2.3,5.2,5.2s-2.3,5.2-5.2,5.2C-237.1,417.3-239.5,414.9-239.5,412z M-227.7,420.8
		c-0.6-0.9-1.3-1.6-2.2-2.2c0.9-0.6,1.6-1.3,2.2-2.2c0.6,0.9,1.3,1.6,2.2,2.2C-226.4,419.1-227.1,419.9-227.7,420.8z M-214.6,420.8
		c-0.6-0.9-1.3-1.6-2.2-2.2c0.9-0.6,1.6-1.3,2.2-2.2c0.6,0.9,1.3,1.6,2.2,2.2C-213.3,419.1-214,419.9-214.6,420.8z M-208.1,417.3
		c-2.9,0-5.2-2.4-5.2-5.2c0-2.9,2.3-5.2,5.2-5.2s5.2,2.3,5.2,5.2C-202.8,414.9-205.2,417.3-208.1,417.3z"/>
</g>
</svg>
